<svg version="1.1" id="Layer_1" xmlns="http://www.w3.org/2000/svg" xmlns:xlink="http://www.w3.org/1999/xlink" x="0px" y="0px"
	 width="100%" viewBox="0 0 290 174" enable-background="new 0 0 290 174" xml:space="preserve">
<path fill="#07849B" opacity="1.000000" stroke="none" 
	d="
M129.000000,175.000000 
	C86.385521,175.000000 43.771038,175.000000 1.078278,175.000000 
	C1.078278,117.123215 1.078278,59.246296 1.078278,1.000000 
	C19.352575,1.000000 37.707630,1.000000 56.531342,1.463362 
	C57.000034,9.383573 57.001289,16.840422 56.999775,24.297270 
	C56.998013,32.990101 56.996964,32.992111 65.450096,32.999187 
	C70.443336,33.003365 75.452232,32.749638 80.426025,33.060669 
	C87.303642,33.490749 94.154816,34.343582 100.879730,35.333488 
	C101.163872,38.099503 101.585594,40.547401 101.715286,43.107513 
	C100.614014,44.033703 99.676865,44.755970 99.016640,45.676792 
	C95.243477,50.939209 97.158783,55.555275 103.401939,56.305012 
	C105.369255,56.541267 107.350708,56.660564 109.326050,56.829201 
	C113.498863,57.185436 114.949333,59.297676 114.448174,63.534138 
	C113.690735,69.936981 113.455421,76.401581 112.559509,82.911591 
	C109.752457,83.049507 107.384140,83.115776 104.622185,83.116165 
	C103.166969,83.003342 102.105385,82.956398 100.900085,82.695145 
	C100.449821,82.988342 100.143272,83.495850 99.703156,84.179520 
	C99.616592,84.904694 99.663605,85.453712 99.748268,86.330521 
	C99.780891,87.097282 99.775856,87.536247 99.612976,88.136810 
	C99.264740,88.532814 99.095985,88.781868 98.744896,89.397690 
	C98.359650,100.534157 98.120728,111.318115 98.043739,122.103226 
	C98.027542,124.371765 98.606140,126.644547 98.934692,129.299591 
	C99.336624,131.093613 99.714531,132.503387 100.336670,134.031448 
	C100.779236,134.449600 100.977562,134.749466 101.037674,135.349243 
	C99.365974,137.471375 97.832489,139.293640 95.939987,141.167450 
	C94.734779,142.496918 93.888611,143.774826 93.022568,145.026505 
	C93.002708,145.000290 93.055420,145.039902 92.701706,145.107803 
	C89.274559,146.170013 88.032814,147.886398 90.105545,151.284821 
	C90.568321,155.517685 93.503304,154.889404 96.405197,154.972336 
	C97.465652,155.021851 98.171532,155.058228 99.018143,155.402618 
	C105.437996,159.476242 111.717133,163.241882 118.192848,167.282654 
	C121.237343,169.051422 124.085258,170.545044 127.031364,172.326569 
	C127.753036,173.409653 128.376526,174.204834 129.000000,175.000000 
z"/>
<path fill="#06849B" opacity="1.000000" stroke="none" 
	d="
M145.000000,1.000000 
	C193.615585,1.000000 242.231155,1.000000 290.923370,1.000000 
	C290.923370,58.887936 290.923370,116.776001 290.923370,175.000000 
	C258.979889,175.000000 226.958603,175.000000 194.469299,174.582840 
	C194.969681,172.152649 195.421860,169.475754 197.000824,168.247849 
	C202.286636,164.137314 208.165619,161.547760 209.646667,153.262573 
	C210.452515,148.754547 216.961151,145.515854 220.407028,141.177383 
	C222.328323,138.758392 226.693359,137.760620 227.689880,135.229706 
	C230.141998,129.001892 231.821884,122.334328 232.765366,115.694839 
	C233.418076,111.101517 228.171570,106.619202 221.598083,105.002289 
	C220.129868,105.003540 219.061951,105.005554 217.748260,104.782745 
	C213.666473,102.041527 209.830444,99.525116 205.709732,96.833313 
	C203.943726,95.452576 202.462418,94.247246 200.982086,92.623230 
	C200.743683,90.396477 200.082474,88.516098 200.376724,86.799500 
	C200.709473,84.858292 201.596283,81.700371 202.769531,81.439018 
	C208.230545,80.222511 208.235641,76.529320 208.040009,72.321762 
	C207.948181,70.346581 208.128647,68.327316 208.445740,66.370148 
	C209.619278,59.126812 208.226349,57.329750 200.654190,56.929623 
	C198.547913,55.575619 196.768875,54.300941 195.004791,52.645023 
	C195.218765,51.469906 195.179230,50.188808 195.653305,49.956699 
	C201.038498,47.320061 200.077011,42.468773 199.966949,37.947212 
	C199.883026,34.499260 199.790756,31.033808 199.340927,27.623793 
	C199.214310,26.664017 197.812988,25.872393 196.633850,24.992489 
	C194.529327,24.309465 192.787277,23.637592 190.882172,22.728172 
	C190.144623,21.987123 189.570175,21.483622 188.792786,20.700771 
	C185.944916,19.373995 181.672989,16.796625 180.954483,17.560717 
	C178.626938,20.035896 176.293091,18.727371 173.623230,18.989655 
	C170.836319,18.299265 168.425415,17.639067 165.820374,16.711182 
	C164.076462,15.625841 162.526688,14.808187 160.680664,13.989729 
	C159.989471,13.990378 159.594513,13.991833 159.103531,13.689926 
	C158.657562,12.618643 158.307602,11.850720 157.895859,10.844763 
	C157.231903,10.706908 156.629715,10.807088 155.676392,10.782066 
	C152.552429,10.778948 149.779633,10.901031 146.879883,10.671614 
	C146.168610,7.213408 145.584305,4.106704 145.000000,1.000000 
z"/>
<path fill="#068598" opacity="1.000000" stroke="none" 
	d="
M144.531342,1.000000 
	C145.584305,4.106704 146.168610,7.213408 146.710236,10.946277 
	C146.113815,12.714971 145.560089,13.857500 145.003448,15.000168 
	C145.000549,15.000305 145.001831,15.006372 144.686005,15.108522 
	C143.929611,17.126413 143.489059,19.042154 142.742157,21.097515 
	C139.778595,26.441769 144.140961,28.364098 147.250748,31.002073 
	C147.674347,31.019623 147.843811,31.026058 148.161835,31.210474 
	C148.521698,31.616409 148.754837,31.819294 149.285507,32.062103 
	C150.046616,32.407482 150.531998,32.687866 151.126785,33.057205 
	C151.236176,33.146156 151.639603,33.192154 151.639603,33.192154 
	C151.639603,33.192154 152.002716,32.990803 152.225433,33.262367 
	C154.298599,34.356533 156.149033,35.179131 158.059082,36.322952 
	C158.075302,38.105625 158.031921,39.567081 157.572556,41.022041 
	C155.768875,40.987419 154.381165,40.959290 152.878891,40.649323 
	C152.119614,39.926353 151.474915,39.485226 150.678696,38.893116 
	C150.329849,38.533173 150.156464,38.305943 149.870239,37.871803 
	C149.536911,37.443115 149.319778,37.223415 148.741562,36.858498 
	C145.608002,36.133316 142.814941,35.573696 139.769073,34.776039 
	C136.674194,33.346779 133.832138,32.155548 130.879395,30.649349 
	C129.628296,26.430746 126.813110,24.988424 122.699158,25.092842 
	C119.945030,26.780455 117.475220,28.412172 114.810890,29.758554 
	C112.810471,28.100592 111.135765,25.900621 109.161819,25.587561 
	C107.180031,25.273258 104.544586,26.419279 102.926201,27.788713 
	C102.281609,28.334145 103.597305,31.196241 103.839417,33.258476 
	C102.777924,34.013962 101.897621,34.514668 101.017319,35.015373 
	C94.154816,34.343582 87.303642,33.490749 80.426025,33.060669 
	C75.452232,32.749638 70.443336,33.003365 65.450096,32.999187 
	C56.996964,32.992111 56.998013,32.990101 56.999775,24.297270 
	C57.001289,16.840422 57.000034,9.383573 57.000000,1.463362 
	C86.020897,1.000000 115.041786,1.000000 144.531342,1.000000 
z"/>
<path fill="#048296" opacity="1.000000" stroke="none" 
	d="
M221.998352,105.003052 
	C228.171570,106.619202 233.418076,111.101517 232.765366,115.694839 
	C231.821884,122.334328 230.141998,129.001892 227.689880,135.229706 
	C226.693359,137.760620 222.328323,138.758392 220.407028,141.177383 
	C216.961151,145.515854 210.452515,148.754547 209.646667,153.262573 
	C208.165619,161.547760 202.286636,164.137314 197.000824,168.247849 
	C195.421860,169.475754 194.969681,172.152649 194.000641,174.582840 
	C187.645599,175.000000 181.291214,175.000000 174.497192,174.625458 
	C175.472702,172.480499 176.534348,170.043365 178.371674,169.069199 
	C183.196548,166.511032 183.642914,161.485397 185.859924,157.460068 
	C185.573288,157.306702 185.286652,157.153351 185.259338,156.809052 
	C186.344254,156.413376 187.169830,156.208649 188.147415,156.225311 
	C188.923660,156.669815 189.547882,156.892899 190.172119,157.115982 
	C189.781815,156.409317 189.391510,155.702637 189.199707,154.727509 
	C190.595154,153.969971 191.792084,153.480865 193.325180,152.912720 
	C196.256042,150.820114 199.223953,149.140594 201.378784,146.733276 
	C209.357208,137.820023 217.005005,128.611618 224.919601,119.639885 
	C227.053955,117.220451 227.097046,115.215744 225.441116,112.549316 
	C223.994339,110.219704 223.123596,107.532356 221.998352,105.003052 
z"/>
<path fill="#057A8E" opacity="1.000000" stroke="none" 
	d="
M185.000000,157.000000 
	C185.286652,157.153351 185.573288,157.306702 185.859924,157.460068 
	C183.642914,161.485397 183.196548,166.511032 178.371674,169.069199 
	C176.534348,170.043365 175.472702,172.480499 174.028778,174.625458 
	C167.312363,175.000000 160.624710,175.000000 153.469360,174.583984 
	C152.782059,171.207535 153.461792,169.349808 156.998856,168.652390 
	C158.567108,168.343185 160.667084,165.657913 160.762039,163.952988 
	C160.995316,159.764801 162.701813,157.952469 166.746017,157.872757 
	C167.505417,157.857773 168.254227,157.305923 169.468887,157.001480 
	C174.953232,157.000748 179.976608,157.000366 185.000000,157.000000 
z"/>
<path fill="#027487" opacity="1.000000" stroke="none" 
	d="
M169.007935,157.001831 
	C168.254227,157.305923 167.505417,157.857773 166.746017,157.872757 
	C162.701813,157.952469 160.995316,159.764801 160.762039,163.952988 
	C160.667084,165.657913 158.567108,168.343185 156.998856,168.652390 
	C153.461792,169.349808 152.782059,171.207535 153.000824,174.583984 
	C145.312424,175.000000 137.624832,175.000000 129.468628,175.000000 
	C128.376526,174.204834 127.753036,173.409653 127.469162,172.316025 
	C130.765533,172.089218 134.758789,173.421051 136.487320,171.999374 
	C141.962097,167.496414 146.424591,161.845764 149.459518,155.004272 
	C153.266693,154.987213 156.616806,154.976151 160.415100,154.975372 
	C163.244965,154.993454 165.626663,155.001266 168.155792,155.191467 
	C168.513306,155.607346 168.745483,155.816299 169.001282,156.250992 
	C169.004517,156.668137 169.006226,156.834976 169.007935,157.001831 
z"/>
<path fill="#068497" opacity="1.000000" stroke="none" 
	d="
M157.988556,41.028534 
	C158.031921,39.567081 158.075302,38.105625 158.377808,36.166401 
	C163.106186,33.464066 167.575409,31.239502 172.153229,28.960884 
	C172.944641,29.540201 173.967834,30.289188 175.000275,31.389202 
	C175.345871,32.829021 175.682190,33.917816 176.086182,35.304192 
	C178.767212,36.067314 181.380569,36.532852 183.996857,36.999184 
	C183.999802,36.999977 184.002365,37.004044 184.133667,37.307468 
	C185.261887,37.930908 186.394699,38.727150 187.232147,38.488201 
	C190.789780,37.473080 196.826538,28.908068 196.996338,25.003643 
	C197.812988,25.872393 199.214310,26.664017 199.340927,27.623793 
	C199.790756,31.033808 199.883026,34.499260 199.966949,37.947212 
	C200.077011,42.468773 201.038498,47.320061 195.653305,49.956699 
	C195.179230,50.188808 195.218765,51.469906 194.670349,52.643471 
	C193.874786,53.023846 193.428635,53.024521 192.836945,52.844070 
	C192.485229,52.431107 192.262695,52.216209 191.862656,51.831097 
	C191.473190,51.403645 191.217804,51.196728 190.701263,51.013859 
	C190.467178,51.004517 189.999451,50.976479 189.848724,50.665321 
	C185.991364,47.635666 182.284760,44.917168 178.470215,42.119522 
	C177.097534,42.853863 175.056366,44.906982 173.167831,44.775047 
	C167.608078,44.386635 165.744232,47.358437 164.600235,52.009544 
	C159.818665,52.615582 161.058258,55.810936 161.335022,58.446663 
	C161.426285,59.315697 162.555786,60.751350 162.399200,60.871632 
	C158.806290,63.631435 162.052353,65.704308 162.994263,68.318810 
	C162.349731,69.769112 161.726639,70.884216 160.856003,71.768784 
	C158.152435,68.927246 155.696426,66.316246 153.149780,63.482719 
	C152.889633,62.978775 152.800674,62.673866 152.499710,62.074165 
	C145.523819,61.532421 138.841721,61.112717 132.156662,61.058685 
	C129.120193,61.034149 126.077858,61.733936 122.714935,62.381073 
	C122.217537,67.098717 122.223610,71.557899 121.795685,75.975029 
	C121.570686,78.297569 120.586609,80.546570 119.516350,82.903305 
	C117.057678,82.931862 115.027954,82.885895 112.998230,82.839935 
	C113.455421,76.401581 113.690735,69.936981 114.448174,63.534138 
	C114.949333,59.297676 113.498863,57.185436 109.326050,56.829201 
	C107.350708,56.660564 105.369255,56.541267 103.401939,56.305012 
	C97.158783,55.555275 95.243477,50.939209 99.016640,45.676792 
	C99.676865,44.755970 100.614014,44.033703 101.900955,42.957226 
	C102.617653,42.482204 102.833931,42.248634 103.208061,42.209656 
	C103.603676,42.941071 103.818703,43.456837 104.030396,44.375488 
	C104.684578,48.926292 110.289024,52.485577 117.337410,53.011158 
	C119.466202,53.686981 121.227821,54.349991 123.173004,55.296600 
	C128.061264,61.992294 133.106277,54.576935 137.921875,56.482788 
	C133.517349,51.404621 133.517349,51.404621 136.185394,47.165478 
	C136.600464,47.518784 136.808441,47.749382 136.994385,48.322239 
	C136.994965,49.068138 136.992706,49.494183 137.109192,50.258804 
	C139.156998,51.417053 141.086075,52.236725 143.156967,53.363209 
	C148.707901,56.841179 149.544510,55.765156 153.724808,51.029533 
	C156.553070,47.825581 158.710754,45.316624 157.988556,41.028534 
z"/>
<path fill="#B1B3B5" opacity="1.000000" stroke="none" 
	d="
M96.299011,141.115891 
	C97.832489,139.293640 99.365974,137.471375 101.457802,135.344864 
	C107.681458,134.685471 113.346771,134.330338 118.909180,134.289948 
	C120.210709,135.400955 121.601578,136.858109 123.021736,136.887207 
	C132.919739,137.090118 142.824417,137.058640 152.725525,136.959152 
	C155.483444,136.931442 158.236526,136.422150 161.253433,136.039825 
	C161.947937,135.659134 162.380844,135.372406 163.288528,135.059418 
	C168.576172,134.626984 173.389038,134.220795 178.408844,133.758438 
	C178.615784,133.702271 179.037277,133.623245 179.324951,133.841248 
	C182.433624,139.039429 185.254639,144.019592 187.724976,149.085663 
	C175.638580,149.123245 163.902252,149.124695 152.167725,148.980148 
	C150.085251,148.954498 148.010254,148.321350 145.912689,147.651016 
	C145.635056,146.414795 145.376556,145.496277 144.880127,143.732315 
	C157.302963,143.732315 169.276306,143.732315 181.445007,143.732315 
	C180.766571,138.595367 177.841675,137.943497 174.164352,137.955734 
	C153.029373,138.026062 131.893677,138.069901 110.759216,137.949326 
	C106.527946,137.925201 102.532341,138.037308 98.892632,141.201660 
	C96.627144,143.151443 94.664429,144.925735 92.739166,146.419006 
	C92.869553,145.771942 92.962486,145.405914 93.055420,145.039902 
	C93.055420,145.039902 93.002708,145.000290 93.310822,144.877991 
	C94.512299,143.542419 95.405655,142.329163 96.299011,141.115891 
z"/>
<path fill="#026F84" opacity="1.000000" stroke="none" 
	d="
M149.002441,155.010269 
	C146.424591,161.845764 141.962097,167.496414 136.487320,171.999374 
	C134.758789,173.421051 130.765533,172.089218 127.370964,172.028107 
	C124.085258,170.545044 121.237343,169.051422 118.450012,167.041534 
	C120.603043,165.665314 122.645561,164.643311 124.798546,163.979706 
	C129.063461,162.665115 130.674057,159.395309 129.477966,155.014648 
	C136.297653,155.010727 142.650055,155.010498 149.002441,155.010269 
z"/>
<path fill="#03697B" opacity="1.000000" stroke="none" 
	d="
M129.010651,155.018341 
	C130.674057,159.395309 129.063461,162.665115 124.798546,163.979706 
	C122.645561,164.643311 120.603043,165.665314 118.253418,166.766388 
	C111.717133,163.241882 105.437996,159.476242 99.499100,155.378967 
	C109.563103,155.037659 119.286880,155.028000 129.010651,155.018341 
z"/>
<path fill="#05626C" opacity="1.000000" stroke="none" 
	d="
M129.477966,155.014648 
	C119.286880,155.028000 109.563103,155.037659 99.358376,155.070969 
	C98.171532,155.058228 97.465652,155.021851 96.396423,154.733047 
	C96.048332,154.160049 96.037498,153.840363 96.456215,153.469696 
	C99.667473,153.498856 102.423096,153.579865 105.252563,153.714020 
	C105.326416,153.767197 105.595306,153.786194 105.595306,153.786194 
	C105.595306,153.786194 105.836914,153.668381 106.220154,153.577271 
	C107.121887,153.544510 107.640373,153.602859 108.237617,153.713470 
	C108.316368,153.765732 108.594902,153.781677 108.594902,153.781677 
	C108.594902,153.781677 108.843918,153.657776 109.311996,153.556686 
	C126.511520,153.474503 143.242966,153.493408 159.966095,153.754578 
	C159.968536,154.319534 159.971588,154.642273 159.966904,154.965088 
	C156.616806,154.976151 153.266693,154.987213 149.459518,155.004272 
	C142.650055,155.010498 136.297653,155.010727 129.477966,155.014648 
z"/>
<path fill="#C4C8CE" opacity="1.000000" stroke="none" 
	d="
M119.012085,133.975204 
	C113.346771,134.330338 107.681458,134.685471 101.596024,135.044983 
	C100.977562,134.749466 100.779236,134.449600 100.308121,133.676453 
	C100.078232,132.493591 100.121124,131.783997 100.321930,130.840607 
	C100.652130,130.072617 100.824425,129.538422 101.198784,129.007355 
	C101.400841,129.010468 101.804855,129.017944 101.867813,129.370575 
	C102.336586,130.424988 102.742386,131.126770 103.602402,131.893631 
	C109.358658,131.919846 114.660683,131.880966 120.432404,131.894470 
	C134.266190,132.017273 147.630310,132.087723 160.995392,132.368057 
	C160.996368,132.577942 160.998169,132.997696 160.529694,132.999252 
	C150.657288,133.001953 141.252441,132.928940 131.849838,133.042023 
	C128.265411,133.085144 124.686127,133.555099 120.755173,133.846573 
	C119.941254,133.900146 119.476669,133.937668 119.012085,133.975204 
z"/>
<path fill="#B1CDCF" opacity="1.000000" stroke="none" 
	d="
M100.996735,129.004227 
	C100.824425,129.538422 100.652130,130.072617 100.261871,130.367279 
	C99.952881,116.076897 99.861855,102.026054 99.770828,87.975220 
	C99.775856,87.536247 99.780891,87.097282 99.842682,86.004982 
	C99.878525,84.902222 99.857628,84.452797 99.836723,84.003365 
	C100.143272,83.495850 100.449821,82.988342 100.892891,82.981903 
	C101.027657,83.674332 101.025909,83.865707 101.016701,84.368805 
	C101.016655,85.095886 101.024086,85.511246 101.025620,86.199600 
	C101.021355,86.654617 101.022995,86.836639 101.016983,87.485168 
	C101.005119,101.635857 101.000923,115.320045 100.996735,129.004227 
z"/>
<path fill="#31889E" opacity="1.000000" stroke="none" 
	d="
M99.612976,88.136810 
	C99.861855,102.026054 99.952881,116.076897 100.103966,130.601074 
	C100.121124,131.783997 100.078232,132.493591 100.063889,133.558182 
	C99.714531,132.503387 99.336624,131.093613 98.957527,128.840942 
	C98.953850,115.013893 98.951347,102.029739 98.948853,89.045578 
	C99.095985,88.781868 99.264740,88.532814 99.612976,88.136810 
z"/>
<path fill="#037D8F" opacity="1.000000" stroke="none" 
	d="
M98.744896,89.397690 
	C98.951347,102.029739 98.953850,115.013893 98.933510,128.456711 
	C98.606140,126.644547 98.027542,124.371765 98.043739,122.103226 
	C98.120728,111.318115 98.359650,100.534157 98.744896,89.397690 
z"/>
<path fill="#118494" opacity="1.000000" stroke="none" 
	d="
M103.027466,41.994011 
	C102.833931,42.248634 102.617653,42.482204 102.192978,42.845009 
	C101.585594,40.547401 101.163872,38.099503 100.879730,35.333488 
	C101.897621,34.514668 102.777924,34.013962 104.075317,33.257477 
	C104.492401,33.001694 104.964706,33.000435 104.939148,33.257881 
	C105.211182,34.333755 105.508766,35.152184 105.822266,36.226044 
	C105.833206,36.652016 105.828247,36.822559 105.620743,37.240387 
	C104.621292,38.989780 103.824379,40.491898 103.027466,41.994011 
z"/>
<path fill="#C4C8CE" opacity="1.000000" stroke="none" 
	d="
M101.024170,84.057076 
	C101.025909,83.865707 101.027657,83.674332 101.036606,83.196213 
	C102.105385,82.956398 103.166969,83.003342 104.622452,83.321793 
	C105.016357,83.593300 105.014694,84.004555 105.157913,84.315567 
	C107.188622,85.375778 109.076111,86.124962 110.542801,86.921936 
	C108.433228,87.052223 106.744453,87.134720 104.750710,87.182922 
	C104.036949,87.130592 103.628151,87.112556 102.853653,87.075089 
	C102.000183,87.043327 101.512413,87.030998 101.024643,87.018669 
	C101.022995,86.836639 101.021355,86.654617 101.217056,86.093201 
	C101.284317,85.161575 101.154243,84.609322 101.024170,84.057076 
z"/>
<path fill="#CDCED4" opacity="1.000000" stroke="none" 
	d="
M105.014694,84.004555 
	C105.014694,84.004555 105.016357,83.593300 105.016083,83.387672 
	C107.384140,83.115776 109.752457,83.049507 112.559509,82.911591 
	C115.027954,82.885895 117.057678,82.931862 119.389542,83.153160 
	C119.199318,83.573090 118.706963,83.817688 117.729836,84.045990 
	C113.168274,84.021317 109.091484,84.012932 105.014694,84.004555 
z"/>
<path fill="#077B8E" opacity="1.000000" stroke="none" 
	d="
M96.000572,153.521545 
	C96.037498,153.840363 96.048332,154.160049 96.041847,154.719925 
	C93.503304,154.889404 90.568321,155.517685 90.157379,151.256866 
	C90.193748,150.847412 90.296005,150.779770 90.575928,151.007980 
	C92.570755,151.997986 94.285660,152.759766 96.000572,153.521545 
z"/>
<path fill="#077B8E" opacity="1.000000" stroke="none" 
	d="
M92.701706,145.107803 
	C92.962486,145.405914 92.869553,145.771942 92.732529,146.442749 
	C92.688446,146.747559 92.724472,146.782272 92.493294,146.896759 
	C92.122589,147.318619 91.983055,147.625977 91.607758,148.089066 
	C91.013329,149.089783 90.654663,149.934769 90.296005,150.779770 
	C90.296005,150.779770 90.193748,150.847412 90.141907,150.875366 
	C88.032814,147.886398 89.274559,146.170013 92.701706,145.107803 
z"/>
<path fill="#077B8E" opacity="1.000000" stroke="none" 
	d="
M95.939987,141.167450 
	C95.405655,142.329163 94.512299,143.542419 93.330688,144.904205 
	C93.888611,143.774826 94.734779,142.496918 95.939987,141.167450 
z"/>
<path fill="#31889E" opacity="1.000000" stroke="none" 
	d="
M99.703156,84.179520 
	C99.857628,84.452797 99.878525,84.902222 99.805023,85.677185 
	C99.663605,85.453712 99.616592,84.904694 99.703156,84.179520 
z"/>
<path fill="#077B8E" opacity="1.000000" stroke="none" 
	d="
M188.075638,148.999756 
	C185.254639,144.019592 182.433624,139.039429 179.498352,133.657547 
	C179.645737,133.044769 179.907410,132.833694 180.578522,132.639008 
	C185.775848,131.086319 190.563721,129.517212 195.048950,128.047302 
	C194.610809,124.947456 194.344849,123.065773 194.402176,121.142502 
	C195.159027,121.066582 195.592575,121.032257 196.249222,120.986984 
	C196.782394,120.760109 197.092484,120.544182 197.402573,120.328262 
	C196.948532,120.210838 196.494476,120.093422 196.028900,119.728523 
	C196.017380,119.481049 195.997559,118.985962 196.371231,118.951210 
	C197.836823,117.698967 199.107712,116.595467 199.974503,115.234573 
	C201.012466,113.604889 201.236694,111.026779 202.630692,110.130104 
	C208.022736,106.661736 209.574936,102.594147 205.994431,97.008698 
	C209.830444,99.525116 213.666473,102.041527 217.781174,105.169846 
	C220.570908,114.793091 216.622635,125.074562 209.608810,128.663025 
	C206.571060,130.217224 203.906021,132.497299 201.061783,134.433121 
	C198.499130,136.177307 195.922958,137.901611 192.678635,140.089233 
	C192.656845,139.957214 192.832413,141.021088 192.995773,142.010986 
	C191.493805,142.362122 190.056778,142.698059 189.904236,142.733719 
	C191.066483,146.598602 192.027756,149.795181 192.989014,152.991760 
	C191.792084,153.480865 190.595154,153.969971 189.015320,154.878235 
	C188.396210,155.511368 188.183868,155.746872 187.995407,156.003906 
	C187.169830,156.208649 186.344254,156.413376 185.259338,156.809052 
	C179.976608,157.000366 174.953232,157.000748 169.468887,157.001480 
	C169.006226,156.834976 169.004517,156.668137 169.412811,156.250687 
	C171.877731,155.672821 173.932648,155.345551 176.417389,155.009827 
	C179.556671,154.509537 182.266113,154.017715 185.353546,153.426453 
	C186.512909,151.884583 187.294266,150.442169 188.075638,148.999756 
M199.945160,123.896477 
	C199.945160,123.896477 199.997498,124.001785 200.054504,124.099960 
	C200.054504,124.099960 200.001816,123.997406 199.945160,123.896477 
z"/>
<path fill="#068497" opacity="1.000000" stroke="none" 
	d="
M200.981445,57.008949 
	C208.226349,57.329750 209.619278,59.126812 208.445740,66.370148 
	C208.128647,68.327316 207.948181,70.346581 208.040009,72.321762 
	C208.235641,76.529320 208.230545,80.222511 202.769531,81.439018 
	C201.596283,81.700371 200.709473,84.858292 200.376724,86.799500 
	C200.082474,88.516098 200.743683,90.396477 200.648407,92.531540 
	C197.869888,91.580673 195.426041,90.302795 192.747070,88.785538 
	C189.047226,86.404686 185.582474,84.263229 181.730347,82.029114 
	C179.879578,82.212410 178.416214,82.488365 176.518860,82.851883 
	C173.715332,83.015617 171.345795,83.091797 168.554993,83.102020 
	C166.426575,82.955399 164.719406,82.874733 162.937927,82.400055 
	C162.528458,79.023659 162.193314,76.041275 162.325333,73.043938 
	C167.514023,73.683952 172.235550,74.338928 177.293167,74.998726 
	C178.076553,75.007668 178.523834,75.011787 179.091095,75.329056 
	C181.139694,76.755508 183.068329,77.868813 185.084290,79.309761 
	C186.265701,82.243973 187.964905,82.177544 189.826294,80.561958 
	C191.319260,79.266136 193.085266,78.030479 193.997925,76.366539 
	C197.167969,70.586929 205.087372,66.536964 200.991180,57.747589 
	C200.988220,57.501373 200.981445,57.008949 200.981445,57.008949 
z"/>
<path fill="#038093" opacity="1.000000" stroke="none" 
	d="
M193.325195,152.912720 
	C192.027756,149.795181 191.066483,146.598602 189.904236,142.733719 
	C190.056778,142.698059 191.493805,142.362122 192.995773,142.010986 
	C192.832413,141.021088 192.656845,139.957214 192.678635,140.089233 
	C195.922958,137.901611 198.499130,136.177307 201.061783,134.433121 
	C203.906021,132.497299 206.571060,130.217224 209.608810,128.663025 
	C216.622635,125.074562 220.570908,114.793091 218.026947,105.394653 
	C219.061951,105.005554 220.129868,105.003540 221.598068,105.002289 
	C223.123596,107.532356 223.994339,110.219704 225.441116,112.549316 
	C227.097046,115.215744 227.053955,117.220451 224.919601,119.639885 
	C217.005005,128.611618 209.357208,137.820023 201.378784,146.733276 
	C199.223953,149.140594 196.256042,150.820114 193.325195,152.912720 
z"/>
<path fill="#037286" opacity="1.000000" stroke="none" 
	d="
M192.982178,89.024918 
	C195.426041,90.302795 197.869888,91.580673 200.647430,92.950226 
	C202.462418,94.247246 203.943726,95.452576 205.709732,96.833305 
	C209.574936,102.594147 208.022736,106.661736 202.630692,110.130104 
	C201.236694,111.026779 201.012466,113.604889 199.974503,115.234573 
	C199.107712,116.595467 197.836823,117.698967 196.366470,118.556152 
	C194.907700,115.317596 194.392212,112.024712 192.640991,109.638893 
	C187.410233,102.512695 186.419556,95.796051 192.982178,89.024918 
z"/>
<path fill="#047A8D" opacity="1.000000" stroke="none" 
	d="
M174.991028,31.038177 
	C173.967834,30.289188 172.944641,29.540201 172.153229,28.960884 
	C167.575409,31.239502 163.106186,33.464066 158.318222,35.845177 
	C156.149033,35.179131 154.298599,34.356533 151.979065,33.257019 
	C151.509964,32.980106 151.017395,32.968250 151.017395,32.968254 
	C150.531998,32.687866 150.046616,32.407482 149.137497,31.882917 
	C148.502838,31.410601 148.269333,31.208521 148.013290,31.032494 
	C147.843811,31.026058 147.674347,31.019623 147.255524,30.676912 
	C147.007660,29.906792 147.009171,29.472946 147.300476,29.068291 
	C148.727051,29.064753 149.863831,29.032026 151.124420,29.291836 
	C156.408661,31.545263 159.102432,30.277796 161.401291,24.977364 
	C167.137741,24.390594 165.641083,20.189764 166.014511,16.978870 
	C168.425415,17.639067 170.836319,18.299265 173.677185,19.266434 
	C174.033569,20.851610 173.959976,22.129814 173.858383,23.894875 
	C174.056335,23.991871 175.045181,24.476418 175.973114,25.208290 
	C175.953812,26.302582 175.995438,27.149548 175.996704,28.321774 
	C175.634567,29.444082 175.312790,30.241129 174.991028,31.038177 
z"/>
<path fill="#0F8193" opacity="1.000000" stroke="none" 
	d="
M176.034042,24.960962 
	C175.045181,24.476418 174.056335,23.991871 173.858383,23.894875 
	C173.959976,22.129814 174.033569,20.851610 174.053192,19.296625 
	C176.293091,18.727371 178.626938,20.035896 180.954483,17.560717 
	C181.672989,16.796625 185.944916,19.373995 188.595337,20.840157 
	C188.063232,24.838312 187.525665,28.417734 186.722961,32.197685 
	C185.639328,33.933495 184.820847,35.468769 184.002365,37.004044 
	C184.002365,37.004044 183.999802,36.999977 183.768219,36.704189 
	C181.030609,35.941139 178.524567,35.473873 176.018524,35.006607 
	C175.682190,33.917816 175.345871,32.829021 175.000275,31.389202 
	C175.312790,30.241129 175.634567,29.444082 176.179352,28.101784 
	C176.615799,27.028774 176.829269,26.501015 177.417542,26.024956 
	C178.044464,26.090235 178.296570,26.103811 178.436142,26.425554 
	C178.220352,27.158073 178.117096,27.582430 178.147156,28.221718 
	C180.102203,29.355326 181.923920,30.273998 183.745651,31.192671 
	C184.128464,30.717661 184.511276,30.242651 184.894089,29.767643 
	C184.073486,28.582916 183.252899,27.398191 182.195831,26.232162 
	C181.268753,26.260193 180.578156,26.269527 180.063507,26.076288 
	C180.638397,25.403728 181.037323,24.933744 181.765732,24.075588 
	C180.045288,24.075588 178.976273,24.075588 177.713226,24.206369 
	C177.270859,24.528030 177.037064,24.735313 176.621872,24.959785 
	C176.425934,24.960575 176.034042,24.960962 176.034042,24.960962 
z"/>
<path fill="#03778A" opacity="1.000000" stroke="none" 
	d="
M184.996948,78.982117 
	C183.068329,77.868813 181.139694,76.755508 179.465317,75.316605 
	C181.147751,73.993187 182.575912,72.995377 184.301544,71.839951 
	C186.079025,69.446953 187.559021,67.211563 189.268097,64.728195 
	C190.658936,60.661877 191.820709,56.843536 192.982468,53.025196 
	C193.428635,53.024521 193.874786,53.023846 194.655396,53.024719 
	C196.768875,54.300941 198.547913,55.575619 200.654190,56.929623 
	C200.981445,57.008949 200.988220,57.501373 200.718689,57.943218 
	C197.312714,61.722725 194.176270,65.060387 191.039825,68.398048 
	C190.637589,70.622673 189.622757,72.539917 188.440521,74.347694 
	C187.389038,75.955521 186.152054,77.442047 184.996948,78.982117 
z"/>
<path fill="#0E8492" opacity="1.000000" stroke="none" 
	d="
M147.010681,29.039101 
	C147.009171,29.472946 147.007660,29.906792 147.001373,30.665798 
	C144.140961,28.364098 139.778595,26.441769 142.935013,20.816170 
	C143.956757,18.598925 144.479294,16.802649 145.001831,15.006372 
	C145.001831,15.006372 145.000549,15.000305 145.327209,14.848869 
	C149.981186,10.847786 154.577072,12.164954 159.199539,13.993286 
	C159.594513,13.991833 159.989471,13.990378 160.721619,14.352878 
	C161.351593,16.143099 161.644409,17.569366 161.593964,18.956457 
	C158.679901,18.284838 156.109100,17.652395 153.329468,16.735607 
	C152.082489,15.947851 151.044342,15.444444 149.668365,14.963617 
	C148.878494,15.681940 148.426437,16.377682 147.976532,17.420425 
	C147.985580,18.461403 147.992462,19.155378 147.720108,19.900616 
	C147.137894,20.665926 146.834915,21.379976 146.722992,22.347668 
	C147.273254,22.822132 147.632477,23.042959 147.891388,23.535965 
	C147.530945,25.551798 147.270813,27.295450 147.010681,29.039101 
z"/>
<path fill="#037D8F" opacity="1.000000" stroke="none" 
	d="
M184.133667,37.307468 
	C184.820847,35.468769 185.639328,33.933495 186.982269,32.348160 
	C191.310837,32.479488 191.419479,29.814875 191.401077,27.145788 
	C191.391464,25.751678 191.170670,24.359028 191.045242,22.965719 
	C192.787277,23.637592 194.529327,24.309465 196.633850,24.992493 
	C196.826538,28.908068 190.789780,37.473080 187.232147,38.488201 
	C186.394699,38.727150 185.261887,37.930908 184.133667,37.307468 
z"/>
<path fill="#027487" opacity="1.000000" stroke="none" 
	d="
M161.937225,18.995634 
	C161.644409,17.569366 161.351593,16.143099 161.017838,14.353682 
	C162.526688,14.808187 164.076462,15.625841 165.820374,16.711182 
	C165.641083,20.189764 167.137741,24.390594 161.398651,24.733896 
	C161.010986,24.501408 161.010910,24.014179 161.005981,24.007671 
	C161.001038,24.001163 161.007584,24.003855 161.190674,23.858620 
	C161.607071,23.504408 161.810669,23.269688 161.981781,22.607964 
	C161.965057,21.136349 161.951141,20.065990 161.937225,18.995634 
z"/>
<path fill="#057588" opacity="1.000000" stroke="none" 
	d="
M190.882172,22.728172 
	C191.170670,24.359028 191.391464,25.751678 191.401077,27.145788 
	C191.419479,29.814875 191.310837,32.479488 187.247406,32.147629 
	C187.525665,28.417734 188.063232,24.838312 188.798248,21.119507 
	C189.570175,21.483622 190.144623,21.987123 190.882172,22.728172 
z"/>
<path fill="#1D92A5" opacity="1.000000" stroke="none" 
	d="
M159.103531,13.689926 
	C154.577072,12.164954 149.981186,10.847786 145.330124,14.848732 
	C145.560089,13.857500 146.113815,12.714971 146.837189,11.297779 
	C149.779633,10.901031 152.552429,10.778948 155.997513,10.814807 
	C157.099060,11.009434 157.528351,11.046119 157.957642,11.082800 
	C158.307602,11.850720 158.657562,12.618643 159.103531,13.689926 
z"/>
<path fill="#0E8492" opacity="1.000000" stroke="none" 
	d="
M157.895844,10.844765 
	C157.528351,11.046119 157.099060,11.009434 156.348663,10.940009 
	C156.629715,10.807088 157.231903,10.706908 157.895844,10.844765 
z"/>
<path fill="#19818E" opacity="1.000000" stroke="none" 
	d="
M103.208061,42.209656 
	C103.824379,40.491898 104.621292,38.989780 105.785835,37.436676 
	C106.403053,37.616600 106.652649,37.847507 106.943832,38.373215 
	C107.292007,39.141899 107.598602,39.615791 107.935959,40.362091 
	C108.238342,40.849499 108.509964,41.064495 108.781586,41.279495 
	C108.690399,40.709885 108.599213,40.140270 108.394196,39.216049 
	C107.845139,37.601055 107.409920,36.340664 107.003357,34.995293 
	C107.032013,34.910309 106.999496,34.733921 107.008759,34.448837 
	C107.042793,33.784534 107.067558,33.405312 107.361122,32.946819 
	C110.088417,31.926331 112.546906,30.985107 115.005402,30.043888 
	C117.475220,28.412172 119.945030,26.780455 122.711388,25.433222 
	C126.117897,29.392788 125.761612,33.771446 125.558670,38.129478 
	C125.545662,38.408855 125.860794,38.703510 125.931557,39.328773 
	C122.474037,41.405190 119.108238,43.143887 115.747711,44.635986 
	C115.038040,44.412560 114.323112,44.435730 113.608185,44.458900 
	C114.071091,44.688187 114.534004,44.917477 114.768600,45.373184 
	C114.032417,46.728340 113.524559,47.857071 113.008621,48.992844 
	C113.000534,48.999878 112.986572,49.015865 112.703331,48.830582 
	C109.624634,47.087730 106.829178,45.530167 104.033722,43.972603 
	C103.818703,43.456837 103.603676,42.941071 103.208061,42.209656 
M120.962013,34.300884 
	C121.097801,34.687824 121.233589,35.074764 121.369370,35.461704 
	C121.536484,35.396297 121.703598,35.330891 121.870705,35.265484 
	C121.553474,34.523304 121.236244,33.781128 120.265099,33.122929 
	C119.725700,33.985886 119.186295,34.848843 118.214973,36.134228 
	C117.898132,36.873634 117.581291,37.613045 116.738159,38.712700 
	C115.828278,39.043453 114.918404,39.374203 114.008522,39.704956 
	C114.171791,40.060570 114.335052,40.416183 114.498322,40.771797 
	C115.680389,40.199211 116.862457,39.626625 118.698570,38.983936 
	C119.502090,38.934795 120.305611,38.885651 120.887276,38.850079 
	C120.231781,37.809151 119.714439,36.987614 119.666412,35.799744 
	C120.084030,35.141842 120.501648,34.483940 120.962013,34.300884 
z"/>
<path fill="#057588" opacity="1.000000" stroke="none" 
	d="
M130.990097,30.964321 
	C133.832138,32.155548 136.674194,33.346779 139.749313,35.016731 
	C139.982391,35.495457 139.967102,35.978424 139.983032,35.987389 
	C139.998947,35.996353 139.992508,35.966656 139.708557,36.031555 
	C138.925354,36.389256 138.426071,36.682060 137.694275,37.121750 
	C136.960175,37.797161 136.458588,38.325684 135.772552,39.128174 
	C135.719482,40.595169 135.850861,41.788197 136.279022,42.992058 
	C136.971298,43.016582 137.366806,43.030277 137.782379,43.274597 
	C137.802444,43.505222 137.714874,43.959858 137.455048,44.074402 
	C136.793732,44.802135 136.392227,45.415325 135.672760,46.178230 
	C132.235901,46.885708 129.117004,47.443459 126.162468,47.696770 
	C127.521057,44.343311 132.085632,41.921265 128.083740,37.703270 
	C128.076141,37.499508 128.051208,37.092457 128.352539,36.957569 
	C129.104675,35.879917 129.555481,34.937153 130.029907,33.668968 
	C130.365707,32.550472 130.677902,31.757399 130.990097,30.964321 
z"/>
<path fill="#03778A" opacity="1.000000" stroke="none" 
	d="
M157.572571,41.022041 
	C158.710754,45.316624 156.553070,47.825581 153.724808,51.029533 
	C149.544510,55.765156 148.707901,56.841179 143.527283,53.337978 
	C145.176331,52.002388 146.596832,50.998840 148.008423,49.997177 
	C147.999496,49.999065 147.997543,50.016735 148.314743,49.993126 
	C149.409164,49.640026 150.186371,49.310539 151.054810,48.875942 
	C151.275650,48.505318 151.258011,48.245827 151.090240,47.660072 
	C151.069031,46.885136 151.050644,46.442493 151.347748,45.840530 
	C152.106659,44.097862 152.550064,42.514511 152.993469,40.931160 
	C154.381165,40.959290 155.768875,40.987419 157.572571,41.022041 
z"/>
<path fill="#0F8193" opacity="1.000000" stroke="none" 
	d="
M114.810890,29.758553 
	C112.546906,30.985107 110.088417,31.926331 107.005569,32.936913 
	C105.909050,33.004330 105.436874,33.002380 104.964706,33.000435 
	C104.964706,33.000435 104.492401,33.001694 104.256500,33.002693 
	C103.597305,31.196241 102.281609,28.334145 102.926201,27.788713 
	C104.544586,26.419279 107.180031,25.273258 109.161819,25.587561 
	C111.135765,25.900621 112.810471,28.100592 114.810890,29.758553 
z"/>
<path fill="#0F8193" opacity="1.000000" stroke="none" 
	d="
M130.879395,30.649349 
	C130.677902,31.757399 130.365707,32.550472 129.724152,33.795368 
	C128.946915,35.195610 128.499054,36.144032 128.051208,37.092453 
	C128.051208,37.092457 128.076141,37.499508 127.824310,37.842117 
	C127.056076,38.453506 126.539673,38.722279 126.023285,38.991055 
	C125.860794,38.703510 125.545662,38.408855 125.558670,38.129478 
	C125.761612,33.771446 126.117897,29.392788 122.995712,25.377327 
	C126.813110,24.988424 129.628296,26.430746 130.879395,30.649349 
z"/>
<path fill="#0F8193" opacity="1.000000" stroke="none" 
	d="
M152.878891,40.649323 
	C152.550064,42.514511 152.106659,44.097862 151.091705,45.839783 
	C150.349823,46.001606 150.179474,46.004864 149.880676,45.923424 
	C149.434677,45.747604 149.151642,45.820705 148.695236,46.050255 
	C148.487350,46.042480 148.073898,45.996067 148.047440,45.667801 
	C147.973022,44.904030 147.925049,44.468529 147.907379,43.639675 
	C147.900848,42.194756 147.864014,41.143181 148.105560,40.151878 
	C149.199356,39.822800 150.014786,39.433449 150.830215,39.044098 
	C151.474915,39.485226 152.119614,39.926353 152.878891,40.649323 
z"/>
<path fill="#1D92A5" opacity="1.000000" stroke="none" 
	d="
M150.678696,38.893116 
	C150.014786,39.433449 149.199356,39.822800 148.138428,40.119293 
	C147.892944,40.026436 147.971115,40.074532 147.860840,39.745911 
	C145.156067,38.271000 142.561584,37.124714 139.967102,35.978424 
	C139.967102,35.978424 139.982391,35.495457 140.002136,35.254765 
	C142.814941,35.573696 145.608002,36.133316 148.869049,37.052223 
	C149.533829,37.655205 149.757156,37.871517 150.007019,38.060444 
	C150.156464,38.305943 150.329849,38.533173 150.678696,38.893116 
z"/>
<path fill="#1D92A5" opacity="1.000000" stroke="none" 
	d="
M144.686005,15.108522 
	C144.479294,16.802649 143.956757,18.598925 143.241364,20.676548 
	C143.489059,19.042154 143.929611,17.126413 144.686005,15.108522 
z"/>
<path fill="#0E8492" opacity="1.000000" stroke="none" 
	d="
M148.161835,31.210474 
	C148.269333,31.208521 148.502838,31.410601 148.861786,31.817923 
	C148.754837,31.819294 148.521698,31.616409 148.161835,31.210474 
z"/>
<path fill="#0E8492" opacity="1.000000" stroke="none" 
	d="
M151.126785,33.057205 
	C151.017395,32.968250 151.509964,32.980106 151.756348,32.985455 
	C152.002716,32.990803 151.639603,33.192154 151.639603,33.192154 
	C151.639603,33.192154 151.236176,33.146156 151.126785,33.057205 
z"/>
<path fill="#03778A" opacity="1.000000" stroke="none" 
	d="
M149.870239,37.871803 
	C149.757156,37.871517 149.533829,37.655205 149.209564,37.217785 
	C149.319778,37.223415 149.536911,37.443115 149.870239,37.871803 
z"/>
<path fill="#057A8E" opacity="1.000000" stroke="none" 
	d="
M188.147415,156.225311 
	C188.183868,155.746872 188.396210,155.511368 188.816818,155.146683 
	C189.391510,155.702637 189.781815,156.409317 190.172119,157.115982 
	C189.547882,156.892899 188.923660,156.669815 188.147415,156.225311 
z"/>
<path fill="#056B7C" opacity="1.000000" stroke="none" 
	d="
M184.975555,153.525894 
	C182.266113,154.017715 179.556671,154.509537 175.975052,155.003540 
	C172.738037,155.006836 170.373184,155.007965 168.008347,155.009094 
	C165.626663,155.001266 163.244965,154.993454 160.415100,154.975372 
	C159.971588,154.642273 159.968536,154.319534 160.435745,153.727783 
	C168.934341,153.481110 176.954956,153.503494 184.975555,153.525894 
z"/>
<path fill="#057A8E" opacity="1.000000" stroke="none" 
	d="
M168.155792,155.191467 
	C170.373184,155.007965 172.738037,155.006836 175.545212,155.012009 
	C173.932648,155.345551 171.877731,155.672821 169.411301,156.000397 
	C168.745483,155.816299 168.513306,155.607346 168.155792,155.191467 
z"/>
<path fill="#E9EAE8" opacity="1.000000" stroke="none" 
	d="
M161.858185,73.058891 
	C162.193314,76.041275 162.528458,79.023659 163.085785,82.668083 
	C164.211838,84.079514 165.115677,84.828903 165.707718,85.788834 
	C163.117294,91.016548 159.752792,95.020363 154.985367,97.933388 
	C152.345703,99.546288 150.019257,101.671783 147.271851,103.635086 
	C146.543060,104.051903 146.094009,104.399841 145.380981,104.535873 
	C142.394852,104.264114 139.672684,104.204254 136.703552,104.017471 
	C136.099915,103.798828 135.743256,103.707115 135.218140,103.326569 
	C130.653549,100.016907 126.257408,96.996078 121.866730,93.568420 
	C122.420013,89.481857 121.377609,86.545990 117.999260,84.565857 
	C118.068031,84.396729 118.214607,84.062286 118.214607,84.062286 
	C118.706963,83.817688 119.199318,83.573090 119.818481,83.078644 
	C120.586609,80.546570 121.570686,78.297569 121.795685,75.975029 
	C122.223610,71.557899 122.217537,67.098717 123.167923,62.483479 
	C133.560196,62.321793 143.176254,62.333622 152.792297,62.345451 
	C152.800674,62.673866 152.889633,62.978775 153.059845,63.954411 
	C152.644730,73.400848 152.644730,73.400848 161.368286,72.982895 
	C161.525955,73.036346 161.858185,73.058891 161.858185,73.058891 
z"/>
<path fill="#118494" opacity="1.000000" stroke="none" 
	d="
M162.325348,73.043938 
	C161.858185,73.058891 161.525955,73.036346 161.332306,72.751022 
	C161.138672,72.465698 161.103561,71.999329 161.103561,71.999329 
	C161.726639,70.884216 162.349731,69.769112 163.204712,68.204727 
	C164.345062,68.174057 165.253510,68.592651 165.431702,68.674751 
	C166.572006,66.986702 167.581757,65.491898 168.696716,64.131058 
	C169.265167,64.509346 169.728455,64.753677 170.330872,65.178009 
	C172.398361,68.527412 172.060776,64.582520 173.253723,64.337997 
	C175.038284,63.088081 176.541885,62.061077 178.441803,60.930355 
	C179.095322,60.734715 179.352493,60.642788 179.908508,60.510376 
	C180.883011,61.093456 181.558701,61.717014 182.893906,62.949223 
	C183.587067,62.350872 184.950058,61.174305 186.527893,60.120541 
	C187.165405,60.500397 187.588058,60.757454 188.005325,61.008118 
	C187.999924,61.001728 187.985855,60.992680 188.133148,61.307495 
	C188.533310,62.740273 188.786179,63.858227 189.039032,64.976181 
	C187.559021,67.211563 186.079025,69.446953 183.946457,71.764236 
	C180.247849,71.015579 177.489548,70.764297 176.957077,74.993896 
	C172.235550,74.338928 167.514023,73.683952 162.325348,73.043938 
M174.521744,65.584579 
	C175.887833,65.311203 177.253906,65.037827 178.619995,64.764442 
	C178.498978,64.407738 178.377960,64.051025 178.256958,63.694321 
	C177.133392,64.162277 176.009842,64.630234 174.521744,65.584579 
z"/>
<path fill="#118494" opacity="1.000000" stroke="none" 
	d="
M164.989334,51.986267 
	C165.744232,47.358437 167.608078,44.386635 173.167831,44.775047 
	C175.056366,44.906982 177.097534,42.853863 178.470215,42.119522 
	C182.284760,44.917168 185.991364,47.635666 189.530975,50.814148 
	C189.255463,53.035858 189.246475,54.811180 189.008148,56.555161 
	C188.803467,58.052933 188.336716,59.514885 187.985855,60.992680 
	C187.985855,60.992680 187.999924,61.001728 187.959259,60.729477 
	C187.232468,59.703671 186.546371,58.950119 185.573944,58.199551 
	C184.906601,58.225716 184.525589,58.248894 184.244232,57.901550 
	C185.722153,53.261303 184.360458,50.377762 179.830109,49.146248 
	C179.382004,49.507969 179.150299,49.740868 178.697296,50.123444 
	C177.965790,50.497284 177.475327,50.741081 176.852112,50.716717 
	C172.986969,47.237129 171.983841,50.144024 170.631989,53.086990 
	C169.201752,53.445229 168.104462,53.731930 166.905579,53.733482 
	C166.199127,52.960976 165.594223,52.473621 164.989334,51.986267 
z"/>
<path fill="#118494" opacity="1.000000" stroke="none" 
	d="
M125.931549,39.328773 
	C126.539673,38.722279 127.056076,38.453506 127.831909,38.045883 
	C132.085632,41.921265 127.521057,44.343311 126.163559,47.696243 
	C126.000305,48.000153 126.001709,47.997219 125.702148,48.182907 
	C122.591797,49.911846 119.781013,51.455097 116.970230,52.998344 
	C110.289024,52.485577 104.684578,48.926292 104.030396,44.375488 
	C106.829178,45.530167 109.624634,47.087730 112.769150,49.033875 
	C113.426323,49.635155 113.734436,49.847858 114.042557,50.060558 
	C114.067703,49.931023 114.153381,49.717758 114.108406,49.685242 
	C113.758690,49.432468 113.383804,49.214520 113.016701,48.985806 
	C113.524559,47.857071 114.032417,46.728340 114.943970,45.275970 
	C115.347656,44.952332 115.742447,44.882580 115.742447,44.882584 
	C119.108238,43.143887 122.474037,41.405190 125.931549,39.328773 
z"/>
<path fill="#0F8193" opacity="1.000000" stroke="none" 
	d="
M164.600235,52.009544 
	C165.594223,52.473621 166.199127,52.960976 166.739014,53.958870 
	C167.440826,55.478882 168.207626,56.488354 168.968307,57.901901 
	C170.629028,58.870453 172.295883,59.434929 173.952972,59.967712 
	C173.943207,59.936024 173.889557,59.897018 173.815842,60.296501 
	C173.485672,61.984291 173.229218,63.272594 172.972763,64.560898 
	C172.060776,64.582520 172.398361,68.527412 170.271866,64.880325 
	C169.579636,64.267441 169.085587,64.132263 168.591522,63.997086 
	C167.581757,65.491898 166.572006,66.986702 165.431702,68.674751 
	C165.253510,68.592651 164.345062,68.174057 163.226166,67.869537 
	C162.052353,65.704308 158.806290,63.631435 162.399200,60.871632 
	C162.555786,60.751350 161.426285,59.315697 161.335022,58.446663 
	C161.058258,55.810936 159.818665,52.615582 164.600235,52.009544 
z"/>
<path fill="#037D8F" opacity="1.000000" stroke="none" 
	d="
M125.999214,48.000679 
	C129.117004,47.443459 132.235901,46.885708 135.675323,46.426033 
	C135.995865,46.524113 136.003113,47.020367 136.003113,47.020367 
	C133.517349,51.404621 133.517349,51.404621 137.921875,56.482788 
	C133.106277,54.576935 128.061264,61.992294 123.482574,55.189003 
	C127.000130,53.443718 126.419426,50.691792 126.001709,47.997219 
	C126.001709,47.997219 126.000305,48.000153 125.999214,48.000679 
z"/>
<path fill="#5EB7D4" opacity="1.000000" stroke="none" 
	d="
M160.856003,71.768784 
	C161.103561,71.999329 161.138672,72.465698 161.174652,72.697571 
	C152.644730,73.400848 152.644730,73.400848 153.150482,64.176941 
	C155.696426,66.316246 158.152435,68.927246 160.856003,71.768784 
z"/>
<path fill="#037286" opacity="1.000000" stroke="none" 
	d="
M188.133148,61.307495 
	C188.336716,59.514885 188.803467,58.052933 189.008148,56.555161 
	C189.246475,54.811180 189.255463,53.035858 189.681717,51.125309 
	C189.999451,50.976479 190.467178,51.004517 190.855377,51.208229 
	C191.470993,51.656078 191.731064,51.858181 192.023788,52.018246 
	C192.262695,52.216209 192.485229,52.431107 192.836945,52.844070 
	C191.820709,56.843536 190.658936,60.661877 189.268097,64.728195 
	C188.786179,63.858227 188.533310,62.740273 188.133148,61.307495 
z"/>
<path fill="#057588" opacity="1.000000" stroke="none" 
	d="
M125.702148,48.182907 
	C126.419426,50.691792 127.000130,53.443718 123.299004,54.905403 
	C121.227821,54.349991 119.466202,53.686981 117.337410,53.011162 
	C119.781013,51.455097 122.591797,49.911846 125.702148,48.182907 
z"/>
<path fill="#057588" opacity="1.000000" stroke="none" 
	d="
M152.499710,62.074165 
	C143.176254,62.333622 133.560196,62.321793 123.491165,62.207558 
	C126.077858,61.733936 129.120193,61.034149 132.156662,61.058685 
	C138.841721,61.112717 145.523819,61.532421 152.499710,62.074165 
z"/>
<path fill="#077B8E" opacity="1.000000" stroke="none" 
	d="
M136.990463,49.920227 
	C136.992706,49.494183 136.994965,49.068138 137.315262,48.284828 
	C137.846954,47.901169 138.060608,47.874771 138.704407,47.857491 
	C141.769485,47.849083 144.404434,47.831562 147.259369,47.844414 
	C147.479385,47.874790 147.914917,47.786232 147.918213,47.867165 
	C147.921509,47.948097 147.971207,48.102291 147.993469,48.339741 
	C148.015717,48.577190 148.057449,49.052341 148.041229,49.293362 
	C148.024994,49.534382 147.997543,50.016735 147.997543,50.016735 
	C147.997543,50.016735 147.999496,49.999065 147.620087,50.082428 
	C143.823929,50.083935 140.407196,50.002083 136.990463,49.920227 
z"/>
<path fill="#1D92A5" opacity="1.000000" stroke="none" 
	d="
M137.109192,50.258804 
	C140.407196,50.002083 143.823929,50.083935 147.628998,50.080544 
	C146.596832,50.998840 145.176331,52.002388 143.385498,53.031162 
	C141.086075,52.236725 139.156998,51.417053 137.109192,50.258804 
z"/>
<path fill="#037D8F" opacity="1.000000" stroke="none" 
	d="
M176.086182,35.304192 
	C178.524567,35.473873 181.030609,35.941139 183.765289,36.703396 
	C181.380569,36.532852 178.767212,36.067314 176.086182,35.304192 
z"/>
<path fill="#0F8193" opacity="1.000000" stroke="none" 
	d="
M138.274261,47.848373 
	C138.060608,47.874771 137.846954,47.901169 137.312439,47.964973 
	C136.808441,47.749382 136.600464,47.518784 136.185394,47.165478 
	C136.003113,47.020367 135.995865,46.524113 135.993301,46.276314 
	C136.392227,45.415325 136.793732,44.802135 137.523956,44.463291 
	C137.993225,45.774551 138.133743,46.811462 138.274261,47.848373 
z"/>
<path fill="#118494" opacity="1.000000" stroke="none" 
	d="
M191.862656,51.831097 
	C191.731064,51.858181 191.470993,51.656078 191.089478,51.217571 
	C191.217804,51.196728 191.473190,51.403645 191.862656,51.831097 
z"/>
<path fill="#DAD9DA" opacity="1.000000" stroke="none" 
	d="
M99.195404,141.026169 
	C102.532341,138.037308 106.527946,137.925201 110.759216,137.949326 
	C131.893677,138.069901 153.029373,138.026062 174.164352,137.955734 
	C177.841675,137.943497 180.766571,138.595367 181.445007,143.732315 
	C169.276306,143.732315 157.302963,143.732315 144.880127,143.732315 
	C145.376556,145.496277 145.635056,146.414795 145.662216,147.664886 
	C145.263779,148.009766 145.096664,148.023102 144.473602,148.028778 
	C140.125519,147.640671 136.185455,147.514969 132.357300,146.794495 
	C129.582977,146.272385 126.995605,144.291977 124.257332,144.134232 
	C117.281647,143.732407 110.261330,144.146042 103.275444,143.846558 
	C101.877693,143.786636 100.553513,142.010818 99.195404,141.026169 
z"/>
<path fill="#C6C6C8" opacity="1.000000" stroke="none" 
	d="
M144.929565,148.036423 
	C145.096664,148.023102 145.263779,148.009766 145.681335,147.982574 
	C148.010254,148.321350 150.085251,148.954498 152.167725,148.980148 
	C163.902252,149.124695 175.638580,149.123245 187.724976,149.085663 
	C187.294266,150.442169 186.512909,151.884583 185.353546,153.426453 
	C176.954956,153.503494 168.934341,153.481110 160.444092,153.485504 
	C143.242966,153.493408 126.511520,153.474503 109.140862,153.471924 
	C108.501656,153.488251 108.158867,153.661194 108.158867,153.661194 
	C107.640373,153.602859 107.121887,153.544510 106.057121,153.490723 
	C105.510849,153.495285 105.178711,153.660858 105.178711,153.660858 
	C102.423096,153.579865 99.667473,153.498856 96.456215,153.469696 
	C94.285660,152.759766 92.570755,151.997986 90.575928,151.007980 
	C90.654663,149.934769 91.013329,149.089783 91.888763,148.124817 
	C92.593040,148.026703 92.780556,148.048523 93.324028,148.283661 
	C94.484253,148.652969 95.288193,148.943054 96.092850,148.945084 
	C111.117294,148.983093 126.141907,149.009766 141.166183,148.956009 
	C142.421722,148.951523 143.675156,148.356888 144.929565,148.036423 
z"/>
<path fill="#B0B1B3" opacity="1.000000" stroke="none" 
	d="
M144.473602,148.028778 
	C143.675156,148.356888 142.421722,148.951523 141.166183,148.956009 
	C126.141907,149.009766 111.117294,148.983093 96.092850,148.945084 
	C95.288193,148.943054 94.484253,148.652969 93.274017,147.959229 
	C92.820198,147.208405 92.772331,146.995331 92.724472,146.782272 
	C92.724472,146.782272 92.688446,146.747559 92.695084,146.723801 
	C94.664429,144.925735 96.627144,143.151443 98.892632,141.201660 
	C100.553513,142.010818 101.877693,143.786636 103.275444,143.846558 
	C110.261330,144.146042 117.281647,143.732407 124.257332,144.134232 
	C126.995605,144.291977 129.582977,146.272385 132.357300,146.794495 
	C136.185455,147.514969 140.125519,147.640671 144.473602,148.028778 
z"/>
<path fill="#C6AC36" opacity="1.000000" stroke="none" 
	d="
M180.169067,132.622620 
	C179.907410,132.833694 179.645737,133.044769 179.210663,133.439545 
	C179.037277,133.623245 178.615784,133.702271 178.250305,133.550751 
	C177.584274,133.219650 177.283737,133.040085 176.872192,132.494812 
	C174.169525,131.652374 171.577881,131.175644 169.253433,130.552399 
	C173.218170,129.626373 173.069580,127.772346 170.323700,126.142738 
	C167.920425,124.716438 165.078354,124.029472 163.130020,123.283775 
	C163.417038,122.711929 163.791672,121.965523 164.206863,121.136566 
	C164.247421,121.054016 164.267136,120.871117 164.500885,120.717072 
	C165.830215,119.740288 166.925781,118.917557 167.835266,118.405602 
	C167.999161,120.101311 167.901077,122.147095 168.784103,122.745758 
	C171.309280,124.457748 174.165955,125.749405 177.018799,126.889839 
	C179.792191,127.998512 180.796432,129.788910 180.169067,132.622620 
z"/>
<path fill="#ABBAC0" opacity="1.000000" stroke="none" 
	d="
M118.909180,134.289948 
	C119.476669,133.937668 119.941254,133.900146 120.732269,133.884521 
	C121.058693,133.906418 121.004059,133.971512 120.985626,134.142075 
	C120.967194,134.312637 120.957634,134.655624 120.802399,134.966293 
	C122.369949,135.525589 124.091026,135.975739 125.815781,135.990326 
	C137.540710,136.089462 149.266388,136.096802 160.991837,136.133774 
	C158.236526,136.422150 155.483444,136.931442 152.725525,136.959152 
	C142.824417,137.058640 132.919739,137.090118 123.021736,136.887207 
	C121.601578,136.858109 120.210709,135.400955 118.909180,134.289948 
z"/>
<path fill="#C6C6C8" opacity="1.000000" stroke="none" 
	d="
M176.983185,132.860504 
	C177.283737,133.040085 177.584274,133.219650 178.043365,133.606918 
	C173.389038,134.220795 168.576172,134.626984 163.055969,135.016022 
	C162.348633,134.998856 161.902664,134.840332 161.790771,134.651306 
	C161.481079,134.239807 161.258606,134.045593 161.008652,133.659134 
	C161.005829,133.438644 160.998169,132.997696 160.998169,132.997696 
	C160.998169,132.997696 160.996368,132.577942 161.457428,132.311340 
	C166.940048,132.316650 171.961609,132.588577 176.983185,132.860504 
z"/>
<path fill="#34686C" opacity="1.000000" stroke="none" 
	d="
M161.902664,134.840332 
	C161.902664,134.840332 162.348633,134.998856 162.581192,135.042267 
	C162.380844,135.372406 161.947937,135.659134 161.253433,136.039825 
	C149.266388,136.096802 137.540710,136.089462 125.815781,135.990326 
	C124.091026,135.975739 122.369949,135.525589 121.262260,135.073929 
	C135.219116,134.860703 148.560898,134.850510 161.902664,134.840332 
z"/>
<path fill="#077B8E" opacity="1.000000" stroke="none" 
	d="
M105.252563,153.714020 
	C105.178711,153.660858 105.510849,153.495285 105.673882,153.581833 
	C105.836914,153.668381 105.595306,153.786194 105.595306,153.786194 
	C105.595306,153.786194 105.326416,153.767197 105.252563,153.714020 
z"/>
<path fill="#077B8E" opacity="1.000000" stroke="none" 
	d="
M108.237617,153.713470 
	C108.158867,153.661194 108.501656,153.488251 108.672791,153.573013 
	C108.843918,153.657776 108.594902,153.781677 108.594902,153.781677 
	C108.594902,153.781677 108.316368,153.765732 108.237617,153.713470 
z"/>
<path fill="#C6AC36" opacity="1.000000" stroke="none" 
	d="
M103.219360,87.094521 
	C103.628151,87.112556 104.036949,87.130592 104.689308,87.585426 
	C104.749077,88.485359 104.409874,88.946579 104.404144,89.411903 
	C104.248367,102.053902 104.069336,114.696594 104.129059,127.338058 
	C104.133018,128.175934 105.997482,129.005020 107.250778,129.851913 
	C107.674255,129.853195 107.843521,129.840744 108.412521,129.839447 
	C109.877914,129.821625 110.943565,129.792679 112.471878,129.830719 
	C125.018784,129.935364 137.103546,129.919174 149.187012,130.036774 
	C154.126236,130.084839 159.062637,130.422531 163.542542,130.734909 
	C150.638336,130.900726 138.191544,130.926178 125.745834,131.054993 
	C123.815620,131.074966 121.890297,131.567886 119.962715,131.842102 
	C114.660683,131.880966 109.358658,131.919846 103.584526,131.437729 
	C103.059074,116.613449 103.005714,102.310158 103.017113,87.778198 
	C103.081871,87.549530 103.219360,87.094521 103.219360,87.094521 
z"/>
<path fill="#7E7774" opacity="1.000000" stroke="none" 
	d="
M120.432404,131.894470 
	C121.890297,131.567886 123.815620,131.074966 125.745834,131.054993 
	C138.191544,130.926178 150.638336,130.900726 163.958008,130.770386 
	C166.216248,130.699234 167.601227,130.699066 168.986221,130.698914 
	C171.577881,131.175644 174.169525,131.652374 176.872192,132.494812 
	C171.961609,132.588577 166.940048,132.316650 161.456451,132.101440 
	C147.630310,132.087723 134.266190,132.017273 120.432404,131.894470 
z"/>
<path fill="#494636" opacity="1.000000" stroke="none" 
	d="
M102.952347,88.006874 
	C103.005714,102.310158 103.059074,116.613449 103.130310,131.372635 
	C102.742386,131.126770 102.336586,130.424988 101.939728,128.904938 
	C101.957718,116.395897 101.928253,104.704857 102.019051,93.014748 
	C102.032036,91.343140 102.626823,89.676056 102.952347,88.006874 
z"/>
<path fill="#C6C6C8" opacity="1.000000" stroke="none" 
	d="
M103.017105,87.778198 
	C102.626823,89.676056 102.032036,91.343140 102.019051,93.014748 
	C101.928253,104.704857 101.957718,116.395897 101.876770,128.552292 
	C101.804855,129.017944 101.400841,129.010468 101.198792,129.007355 
	C101.000923,115.320045 101.005119,101.635857 101.016983,87.485168 
	C101.512413,87.030998 102.000183,87.043327 102.853653,87.075089 
	C103.219360,87.094521 103.081871,87.549530 103.017105,87.778198 
z"/>
<path fill="#CAC6B6" opacity="1.000000" stroke="none" 
	d="
M160.529694,132.999252 
	C160.998169,132.997696 161.005829,133.438644 160.539764,133.698669 
	C147.050476,133.962967 134.027267,133.967239 121.004059,133.971512 
	C121.004059,133.971512 121.058693,133.906418 121.081596,133.868469 
	C124.686127,133.555099 128.265411,133.085144 131.849838,133.042023 
	C141.252441,132.928940 150.657288,133.001953 160.529694,132.999252 
z"/>
<path fill="#CAC6B6" opacity="1.000000" stroke="none" 
	d="
M101.016701,84.368805 
	C101.154243,84.609322 101.284317,85.161575 101.222961,85.820213 
	C101.024086,85.511246 101.016655,85.095886 101.016701,84.368805 
z"/>
<path fill="#07849B" opacity="1.000000" stroke="none" 
	d="
M104.939148,33.257881 
	C105.436874,33.002380 105.909050,33.004330 106.736771,33.016182 
	C107.067558,33.405312 107.042793,33.784534 106.779968,34.623894 
	C106.296730,35.379562 106.051537,35.675087 105.806351,35.970615 
	C105.508766,35.152184 105.211182,34.333755 104.939148,33.257881 
z"/>
<path fill="#5EB7D4" opacity="1.000000" stroke="none" 
	d="
M105.822266,36.226044 
	C106.051537,35.675087 106.296730,35.379562 106.770706,34.908978 
	C106.999496,34.733921 107.032013,34.910309 106.956970,35.368607 
	C106.888695,36.577408 106.895462,37.327911 106.902237,38.078415 
	C106.652649,37.847507 106.403053,37.616600 105.988373,37.189400 
	C105.828247,36.822559 105.833206,36.652016 105.822266,36.226044 
z"/>
<path fill="#FEDC11" opacity="1.000000" stroke="none" 
	d="
M106.996567,129.838196 
	C105.997482,129.005020 104.133018,128.175934 104.129059,127.338058 
	C104.069336,114.696594 104.248367,102.053902 104.404144,89.411903 
	C104.409874,88.946579 104.749077,88.485359 104.994278,87.619720 
	C106.744453,87.134720 108.433228,87.052223 110.834015,87.031143 
	C111.734756,87.178497 111.923477,87.264450 112.231178,87.544907 
	C112.631424,88.096519 112.912689,88.453636 113.153358,89.265869 
	C113.368912,92.810501 113.625069,95.900024 113.895798,99.456131 
	C113.892746,104.616997 113.875130,109.311272 113.709000,114.234566 
	C113.663872,115.309692 113.767258,116.155800 113.888107,117.404587 
	C113.922272,118.881920 113.938980,119.956573 113.898247,121.054764 
	C113.840805,121.078285 113.968346,121.046356 114.368607,121.073372 
	C115.835846,121.090538 116.902832,121.080681 118.392578,121.112808 
	C120.504829,121.256653 122.194321,121.358505 123.916641,121.714706 
	C123.984291,122.312447 124.019096,122.655838 124.029282,123.248337 
	C123.991035,123.663750 123.977409,123.830070 123.610123,124.004509 
	C122.167007,124.671722 121.077553,125.330818 119.602493,125.997406 
	C117.124779,126.989738 115.032669,127.974586 112.774559,129.081787 
	C112.396179,129.377167 112.196396,129.563690 112.009216,129.763718 
	C110.943565,129.792679 109.877914,129.821625 108.291931,129.774597 
	C107.492973,129.619629 107.234627,129.666153 106.996567,129.838196 
z"/>
<path fill="#CAC6B6" opacity="1.000000" stroke="none" 
	d="
M112.112198,87.350403 
	C111.923477,87.264450 111.734756,87.178497 111.254814,86.983353 
	C109.076111,86.124962 107.188622,85.375778 105.157913,84.315567 
	C109.091484,84.012932 113.168274,84.021317 117.729836,84.045990 
	C118.214607,84.062286 118.068031,84.396729 117.743393,84.707016 
	C116.907013,85.302750 116.395279,85.588188 115.645271,85.725266 
	C114.603714,86.055878 113.800423,86.534851 112.781357,87.112320 
	C112.565575,87.210808 112.112198,87.350403 112.112198,87.350403 
z"/>
<path fill="#B1B3B5" opacity="1.000000" stroke="none" 
	d="
M92.493294,146.896759 
	C92.772331,146.995331 92.820198,147.208405 92.918060,147.745911 
	C92.780556,148.048523 92.593040,148.026703 92.124527,147.969116 
	C91.983055,147.625977 92.122589,147.318619 92.493294,146.896759 
z"/>
<path fill="#ECECEC" opacity="1.000000" stroke="none" 
	d="
M180.578522,132.639023 
	C180.796432,129.788910 179.792191,127.998512 177.018799,126.889839 
	C174.165955,125.749405 171.309280,124.457748 168.784103,122.745758 
	C167.901077,122.147095 167.999161,120.101311 168.200012,118.385468 
	C172.511459,117.623451 171.633057,115.173462 170.999832,112.502289 
	C169.733673,110.384850 168.488190,108.604286 167.182892,106.622284 
	C167.123077,106.420845 167.050278,106.006920 167.206055,105.751312 
	C168.378815,105.649345 169.850967,105.432785 170.331100,106.023079 
	C172.064957,108.154816 173.465027,110.558044 174.991119,112.858772 
	C175.283463,112.738251 175.575806,112.617729 175.868134,112.497208 
	C175.341339,110.034485 174.814529,107.571762 174.522812,104.922546 
	C175.659210,104.520012 176.560532,104.303970 177.826447,104.261154 
	C178.863708,104.060493 179.536377,103.686615 180.454407,103.420303 
	C181.233673,104.523834 181.767578,105.519783 182.609055,107.089508 
	C182.833771,105.769844 182.958801,105.035507 183.448471,104.208504 
	C185.260757,105.063660 187.369186,105.681953 188.036072,107.019157 
	C190.323029,111.604813 192.104614,116.442505 194.078888,121.184097 
	C194.344849,123.065773 194.610809,124.947456 195.048950,128.047302 
	C190.563721,129.517212 185.775848,131.086319 180.578522,132.639023 
z"/>
<path fill="#056B7C" opacity="1.000000" stroke="none" 
	d="
M194.402161,121.142502 
	C192.104614,116.442505 190.323029,111.604813 188.036072,107.019157 
	C187.369186,105.681953 185.260757,105.063660 183.324081,103.756615 
	C182.745224,101.230598 182.655396,99.063812 182.605728,96.460014 
	C182.618637,93.669716 182.591385,91.316422 182.684097,88.584793 
	C182.575287,86.178223 182.346512,84.149994 182.117737,82.121765 
	C185.582474,84.263229 189.047226,86.404686 192.747070,88.785538 
	C186.419556,95.796051 187.410233,102.512695 192.640991,109.638893 
	C194.392212,112.024712 194.907700,115.317596 195.992798,118.590912 
	C195.997559,118.985962 196.017380,119.481049 196.023407,119.984100 
	C196.028336,120.657410 196.027237,120.827667 196.026138,120.997925 
	C195.592575,121.032257 195.159027,121.066582 194.402161,121.142502 
z"/>
<path fill="#037286" opacity="1.000000" stroke="none" 
	d="
M196.249222,120.986984 
	C196.027237,120.827667 196.028336,120.657410 196.034943,120.231567 
	C196.494476,120.093422 196.948532,120.210838 197.402573,120.328262 
	C197.092484,120.544182 196.782394,120.760109 196.249222,120.986984 
z"/>
<path fill="#037286" opacity="1.000000" stroke="none" 
	d="
M200.001816,123.997406 
	C200.001816,123.997406 200.054504,124.099960 200.027252,124.049980 
	C200.000000,124.000000 200.001816,123.997406 200.001816,123.997406 
z"/>
<path fill="#037286" opacity="1.000000" stroke="none" 
	d="
M199.998749,124.000893 
	C199.997498,124.001785 199.945160,123.896477 199.973480,123.946945 
	C200.001816,123.997406 200.000000,124.000000 199.998749,124.000893 
z"/>
<path fill="#038093" opacity="1.000000" stroke="none" 
	d="
M185.084290,79.309761 
	C186.152054,77.442047 187.389038,75.955521 188.440521,74.347694 
	C189.622757,72.539917 190.637589,70.622673 191.039825,68.398048 
	C194.176270,65.060387 197.312714,61.722725 200.721649,58.189434 
	C205.087372,66.536964 197.167969,70.586929 193.997925,76.366539 
	C193.085266,78.030479 191.319260,79.266136 189.826294,80.561958 
	C187.964905,82.177544 186.265701,82.243973 185.084290,79.309761 
z"/>
<path fill="#CAC6B6" opacity="1.000000" stroke="none" 
	d="
M166.019531,85.578285 
	C165.115677,84.828903 164.211838,84.079514 163.160126,83.062088 
	C164.719406,82.874733 166.426575,82.955399 168.908401,83.284424 
	C172.139816,83.667183 174.596573,83.801598 177.045807,83.942696 
	C177.038300,83.949379 177.046722,83.965210 176.874741,84.292610 
	C174.119888,85.435936 171.537033,86.251869 168.634476,86.972710 
	C167.549698,86.444504 166.784607,86.011391 166.019531,85.578285 
z"/>
<path fill="#9EB4B7" opacity="1.000000" stroke="none" 
	d="
M181.730347,82.029114 
	C182.346512,84.149994 182.575287,86.178223 182.520676,88.351494 
	C181.785080,87.893738 181.332855,87.290939 180.880615,86.688141 
	C180.539413,87.177635 180.198212,87.667130 179.638809,88.170593 
	C179.420609,88.184570 179.001419,88.308983 178.783585,88.224724 
	C178.565750,88.140465 178.143616,87.940475 178.135406,87.583664 
	C177.767059,86.139641 177.406891,85.052422 177.046722,83.965210 
	C177.046722,83.965210 177.038300,83.949379 177.025482,83.649460 
	C176.992722,83.154465 176.972794,82.959396 176.952850,82.764313 
	C178.416214,82.488365 179.879578,82.212410 181.730347,82.029114 
z"/>
<path fill="#057588" opacity="1.000000" stroke="none" 
	d="
M177.293167,74.998718 
	C177.489548,70.764297 180.247849,71.015579 183.648987,71.921852 
	C182.575912,72.995377 181.147751,73.993187 179.345352,75.003464 
	C178.523834,75.011787 178.076553,75.007668 177.293167,74.998718 
z"/>
<path fill="#C4C8CE" opacity="1.000000" stroke="none" 
	d="
M176.518860,82.851883 
	C176.972794,82.959396 176.992722,83.154465 177.032990,83.642776 
	C174.596573,83.801598 172.139816,83.667183 169.329681,83.350372 
	C171.345795,83.091797 173.715332,83.015617 176.518860,82.851883 
z"/>
<path fill="#0E8492" opacity="1.000000" stroke="none" 
	d="
M161.010910,24.014179 
	C161.010910,24.014179 161.010986,24.501408 161.013626,24.744877 
	C159.102432,30.277796 156.408661,31.545263 151.104904,28.957714 
	C150.980423,26.884966 150.999268,25.438877 151.385895,23.984085 
	C152.244781,23.958981 152.735886,23.942579 153.473755,24.090298 
	C154.126480,25.132896 154.532455,26.011375 155.053314,27.017284 
	C155.381516,27.222282 155.594849,27.299850 155.808197,27.377415 
	C155.770920,27.162336 155.733643,26.947260 155.687485,26.527763 
	C155.658707,26.034241 155.744675,25.781080 155.989822,25.215446 
	C156.321030,24.229998 156.598923,23.592966 157.206146,23.096985 
	C158.693954,23.496748 159.852432,23.755463 161.010910,24.014179 
M158.470673,26.500923 
	C158.470673,26.500923 158.513519,26.484251 158.470673,26.500923 
z"/>
<path fill="#068598" opacity="1.000000" stroke="none" 
	d="
M151.018112,23.992790 
	C150.999268,25.438877 150.980423,26.884966 150.981079,28.665176 
	C149.863831,29.032026 148.727051,29.064753 147.300476,29.068291 
	C147.270813,27.295450 147.530945,25.551798 148.175690,23.394867 
	C149.324570,22.693964 150.088867,22.406338 150.888779,22.430779 
	C150.955643,23.159492 150.986877,23.576141 151.018112,23.992790 
z"/>
<path fill="#19818E" opacity="1.000000" stroke="none" 
	d="
M175.973114,25.208290 
	C176.034042,24.960962 176.425934,24.960575 176.674347,25.214390 
	C176.962753,25.636553 177.002747,25.804903 177.042725,25.973253 
	C176.829269,26.501015 176.615799,27.028774 176.219696,27.776524 
	C175.995438,27.149548 175.953812,26.302582 175.973114,25.208290 
z"/>
<path fill="#056B7C" opacity="1.000000" stroke="none" 
	d="
M182.432312,26.213463 
	C183.252899,27.398191 184.073486,28.582916 184.894089,29.767643 
	C184.511276,30.242651 184.128464,30.717661 183.745651,31.192671 
	C181.923920,30.273998 180.102203,29.355326 178.522354,28.227694 
	C179.986923,27.416977 181.209625,26.815220 182.432312,26.213463 
z"/>
<path fill="#90DAE1" opacity="1.000000" stroke="none" 
	d="
M182.195831,26.232161 
	C181.209625,26.815220 179.986923,27.416977 178.389038,28.012760 
	C178.117096,27.582430 178.220352,27.158073 178.491760,26.485821 
	C178.659927,26.237921 178.816055,26.169922 179.084412,26.192417 
	C179.531021,26.236227 179.709274,26.257544 179.887543,26.278862 
	C180.578156,26.269527 181.268753,26.260193 182.195831,26.232161 
z"/>
<path fill="#057588" opacity="1.000000" stroke="none" 
	d="
M180.063507,26.076288 
	C179.709274,26.257544 179.531021,26.236227 179.027206,25.909348 
	C178.436844,25.094385 178.172043,24.584984 177.907257,24.075586 
	C178.976273,24.075588 180.045288,24.075588 181.765732,24.075588 
	C181.037323,24.933744 180.638397,25.403728 180.063507,26.076288 
z"/>
<path fill="#55B1BF" opacity="1.000000" stroke="none" 
	d="
M177.713226,24.206367 
	C178.172043,24.584984 178.436844,25.094385 178.758850,25.886852 
	C178.816055,26.169922 178.659927,26.237921 178.604309,26.177654 
	C178.296570,26.103811 178.044464,26.090235 177.417542,26.024956 
	C177.002747,25.804903 176.962753,25.636553 176.870270,25.213600 
	C177.037064,24.735313 177.270859,24.528030 177.713226,24.206367 
z"/>
<path fill="#0F8193" opacity="1.000000" stroke="none" 
	d="
M161.005981,24.007671 
	C159.852432,23.755463 158.693954,23.496748 157.172119,22.846470 
	C156.616135,21.990602 156.423492,21.526302 155.834412,20.989634 
	C153.911560,19.955130 152.385132,18.992992 151.115021,17.765678 
	C152.093658,17.340319 152.815964,17.180136 153.538284,17.019955 
	C156.109100,17.652395 158.679901,18.284838 161.593964,18.956457 
	C161.951141,20.065990 161.965057,21.136349 161.801773,22.755955 
	C161.394196,23.516258 161.188538,23.749140 161.007584,24.003855 
	C161.007584,24.003855 161.001038,24.001163 161.005981,24.007671 
z"/>
<path fill="#5EB7D4" opacity="1.000000" stroke="none" 
	d="
M150.858719,18.030853 
	C152.385132,18.992992 153.911560,19.955130 155.644989,21.228168 
	C155.880173,22.880669 155.908325,24.222267 155.936493,25.563868 
	C155.744675,25.781080 155.658707,26.034241 155.494202,26.548216 
	C155.309830,26.773087 154.938431,26.889854 154.938431,26.889854 
	C154.532455,26.011375 154.126480,25.132896 153.340424,23.808037 
	C152.257935,22.947344 151.555542,22.533026 150.853149,22.118710 
	C150.088867,22.406338 149.324570,22.693964 148.276001,23.122688 
	C147.632477,23.042959 147.273254,22.822132 146.976562,22.072140 
	C147.400101,21.198206 147.761124,20.853441 148.412521,20.480940 
	C149.082748,19.673105 149.462585,18.893007 150.096649,18.088226 
	C150.520157,18.052650 150.689438,18.041752 150.858719,18.030853 
z"/>
<path fill="#19818E" opacity="1.000000" stroke="none" 
	d="
M149.842422,18.112907 
	C149.462585,18.893007 149.082748,19.673105 148.384460,20.316313 
	C148.066025,20.179422 147.999344,19.849354 147.999344,19.849354 
	C147.992462,19.155378 147.985580,18.461403 148.219330,17.555016 
	C148.954834,17.592171 149.449692,17.841740 149.914276,18.074249 
	C149.884003,18.057192 149.842422,18.112906 149.842422,18.112907 
z"/>
<path fill="#55B1BF" opacity="1.000000" stroke="none" 
	d="
M151.115021,17.765678 
	C150.689438,18.041752 150.520157,18.052650 150.096649,18.088226 
	C149.842422,18.112906 149.884003,18.057192 149.922882,17.679737 
	C149.976578,16.515202 149.991379,15.728120 150.006180,14.941036 
	C151.044342,15.444444 152.082489,15.947851 153.329468,16.735607 
	C152.815964,17.180136 152.093658,17.340319 151.115021,17.765678 
z"/>
<path fill="#31889E" opacity="1.000000" stroke="none" 
	d="
M147.720108,19.900616 
	C147.999344,19.849354 148.066025,20.179422 148.094086,20.344049 
	C147.761124,20.853441 147.400101,21.198206 146.785507,21.818499 
	C146.834915,21.379976 147.137894,20.665926 147.720108,19.900616 
z"/>
<path fill="#5EB7D4" opacity="1.000000" stroke="none" 
	d="
M149.668365,14.963618 
	C149.991379,15.728120 149.976578,16.515202 149.953156,17.696795 
	C149.449692,17.841740 148.954834,17.592171 148.217178,17.208014 
	C148.426437,16.377682 148.878494,15.681940 149.668365,14.963618 
z"/>
<path fill="#0E8492" opacity="1.000000" stroke="none" 
	d="
M161.190674,23.858620 
	C161.188538,23.749140 161.394196,23.516258 161.804581,23.157213 
	C161.810669,23.269688 161.607071,23.504408 161.190674,23.858620 
z"/>
<path fill="#90DAE1" opacity="1.000000" stroke="none" 
	d="
M119.197098,36.166077 
	C119.714439,36.987614 120.231781,37.809151 120.887276,38.850079 
	C120.305611,38.885651 119.502090,38.934795 118.182747,38.836670 
	C117.532761,38.577087 117.398605,38.464767 117.264442,38.352451 
	C117.581291,37.613045 117.898132,36.873634 118.569885,36.036388 
	C118.924805,35.938549 119.197098,36.166077 119.197098,36.166077 
z"/>
<path fill="#90DAE1" opacity="1.000000" stroke="none" 
	d="
M117.855728,38.871723 
	C116.862457,39.626625 115.680389,40.199211 114.498322,40.771797 
	C114.335052,40.416183 114.171791,40.060570 114.008522,39.704956 
	C114.918404,39.374203 115.828278,39.043453 117.001297,38.532578 
	C117.398605,38.464767 117.532761,38.577087 117.855728,38.871723 
z"/>
<path fill="#90DAE1" opacity="1.000000" stroke="none" 
	d="
M106.943832,38.373215 
	C106.895462,37.327911 106.888695,36.577408 106.928314,35.453590 
	C107.409920,36.340664 107.845139,37.601055 108.241272,39.343235 
	C108.202187,39.825027 107.905197,40.089680 107.905197,40.089680 
	C107.598602,39.615791 107.292007,39.141899 106.943832,38.373215 
z"/>
<path fill="#118494" opacity="1.000000" stroke="none" 
	d="
M120.919014,33.038948 
	C121.236244,33.781128 121.553474,34.523304 121.870705,35.265484 
	C121.703598,35.330891 121.536484,35.396297 121.369370,35.461704 
	C121.233589,35.074764 121.097801,34.687824 120.928268,33.866707 
	C120.894516,33.432529 120.919014,33.038948 120.919014,33.038948 
z"/>
<path fill="#90DAE1" opacity="1.000000" stroke="none" 
	d="
M120.592056,33.080940 
	C120.919014,33.038948 120.894516,33.432529 120.906891,33.629284 
	C120.501648,34.483940 120.084030,35.141842 119.431755,35.982910 
	C119.197098,36.166077 118.924805,35.938549 118.785851,35.825172 
	C119.186295,34.848843 119.725700,33.985886 120.592056,33.080940 
z"/>
<path fill="#90DAE1" opacity="1.000000" stroke="none" 
	d="
M115.747711,44.635986 
	C115.742447,44.882580 115.347656,44.952332 115.172287,45.049545 
	C114.534004,44.917477 114.071091,44.688187 113.608185,44.458900 
	C114.323112,44.435730 115.038040,44.412560 115.747711,44.635986 
z"/>
<path fill="#90DAE1" opacity="1.000000" stroke="none" 
	d="
M108.355103,39.697845 
	C108.599213,40.140270 108.690399,40.709885 108.781586,41.279495 
	C108.509964,41.064495 108.238342,40.849499 107.935959,40.362091 
	C107.905197,40.089680 108.202187,39.825027 108.355103,39.697845 
z"/>
<path fill="#55B1BF" opacity="1.000000" stroke="none" 
	d="
M138.704407,47.857491 
	C138.133743,46.811462 137.993225,45.774551 137.783783,44.348747 
	C137.714874,43.959858 137.802444,43.505222 137.895813,42.894318 
	C141.316483,41.547115 144.643799,40.810822 147.971115,40.074532 
	C147.971115,40.074532 147.892944,40.026436 147.860062,40.059021 
	C147.864014,41.143181 147.900848,42.194756 147.620972,43.649437 
	C147.215973,45.306377 147.127670,46.560207 147.039368,47.814041 
	C144.404434,47.831562 141.769485,47.849083 138.704407,47.857491 
z"/>
<path fill="#0F8193" opacity="1.000000" stroke="none" 
	d="
M147.860840,39.745907 
	C144.643799,40.810822 141.316483,41.547115 137.875732,42.663689 
	C137.366806,43.030277 136.971298,43.016582 136.287964,42.688721 
	C135.985748,41.201107 135.971375,40.027657 135.957001,38.854206 
	C136.458588,38.325684 136.960175,37.797161 137.907471,37.250336 
	C138.899628,36.810246 139.446060,36.388451 139.992508,35.966656 
	C139.992508,35.966656 139.998947,35.996353 139.983032,35.987389 
	C142.561584,37.124714 145.156067,38.271000 147.860840,39.745907 
z"/>
<path fill="#118494" opacity="1.000000" stroke="none" 
	d="
M128.352539,36.957565 
	C128.499054,36.144032 128.946915,35.195610 129.700531,34.120785 
	C129.555481,34.937153 129.104675,35.879917 128.352539,36.957565 
z"/>
<path fill="#1D92A5" opacity="1.000000" stroke="none" 
	d="
M135.772552,39.128174 
	C135.971375,40.027657 135.985748,41.201107 135.991180,42.677891 
	C135.850861,41.788197 135.719482,40.595169 135.772552,39.128174 
z"/>
<path fill="#1D92A5" opacity="1.000000" stroke="none" 
	d="
M139.708557,36.031555 
	C139.446060,36.388451 138.899628,36.810246 138.139984,37.103455 
	C138.426071,36.682060 138.925354,36.389256 139.708557,36.031555 
z"/>
<path fill="#1D92A5" opacity="1.000000" stroke="none" 
	d="
M148.314743,49.993126 
	C147.997543,50.016735 148.024994,49.534382 148.126541,49.175720 
	C148.345398,48.512962 148.259766,48.274704 147.971207,48.102291 
	C147.971207,48.102291 147.921509,47.948097 147.926422,47.567200 
	C147.978867,46.789555 148.026382,46.392811 148.073898,45.996067 
	C148.073898,45.996067 148.487350,46.042480 148.972931,46.047836 
	C149.642044,46.038170 149.825577,46.023148 150.009109,46.008125 
	C150.179474,46.004864 150.349823,46.001606 150.776215,45.999096 
	C151.050644,46.442493 151.069031,46.885136 151.053772,47.906612 
	C151.020126,48.485443 150.963593,48.981052 150.963593,48.981052 
	C150.186371,49.310539 149.409164,49.640026 148.314743,49.993126 
z"/>
<path fill="#0F8193" opacity="1.000000" stroke="none" 
	d="
M151.054810,48.875942 
	C150.963593,48.981052 151.020126,48.485443 151.056610,48.238907 
	C151.258011,48.245827 151.275650,48.505318 151.054810,48.875942 
z"/>
<path fill="#5EB7D4" opacity="1.000000" stroke="none" 
	d="
M148.047440,45.667801 
	C148.026382,46.392811 147.978867,46.789555 147.923126,47.486267 
	C147.914917,47.786232 147.479385,47.874790 147.259369,47.844414 
	C147.127670,46.560207 147.215973,45.306377 147.590698,44.042786 
	C147.925049,44.468529 147.973022,44.904030 148.047440,45.667801 
z"/>
<path fill="#077B8E" opacity="1.000000" stroke="none" 
	d="
M149.880676,45.923424 
	C149.825577,46.023148 149.642044,46.038170 149.180817,46.055611 
	C149.151642,45.820705 149.434677,45.747604 149.880676,45.923424 
z"/>
<path fill="#F4A755" opacity="1.000000" stroke="none" 
	d="
M123.883812,121.460358 
	C122.194321,121.358505 120.504829,121.256653 118.478348,120.781075 
	C119.752068,118.312088 121.362778,116.216827 123.260208,114.036041 
	C124.044281,113.631767 124.541634,113.313004 125.019341,112.996788 
	C124.999695,112.999336 124.993622,113.038475 125.314842,112.950195 
	C127.101913,111.577950 128.567764,110.293976 130.013031,109.002708 
	C129.992432,108.995415 130.006195,109.036888 130.326477,108.970505 
	C131.772034,107.941765 132.897293,106.979408 134.009628,106.009064 
	C133.996704,106.001068 134.012863,106.028023 134.309631,105.974472 
	C135.387772,105.328743 136.169144,104.736572 136.950516,104.144394 
	C139.672684,104.204254 142.394852,104.264114 145.620300,104.810753 
	C149.414734,107.545563 152.705902,109.793579 156.002045,112.017929 
	C156.007004,111.994263 155.961227,112.009888 156.160324,112.282974 
	C157.576492,113.050362 158.793549,113.544655 160.005798,114.016525 
	C160.000977,113.994087 159.956635,114.005882 160.007660,114.290817 
	C160.374557,115.047821 160.690414,115.519897 161.231049,116.231339 
	C162.392914,117.937508 163.330017,119.404312 164.267136,120.871117 
	C164.267136,120.871117 164.247421,121.054016 163.721130,121.093948 
	C150.091171,121.242706 136.987488,121.351532 123.883812,121.460358 
z"/>
<path fill="#E7994B" opacity="1.000000" stroke="none" 
	d="
M122.973488,114.121559 
	C121.362778,116.216827 119.752068,118.312088 118.055588,120.739090 
	C116.902832,121.080681 115.835846,121.090538 114.385315,121.050545 
	C114.001755,121.000702 113.955688,121.031235 113.955688,121.031235 
	C113.938980,119.956573 113.922272,118.881920 113.934189,117.031265 
	C113.927719,115.505363 113.892616,114.755455 113.857513,114.005554 
	C113.875130,109.311272 113.892746,104.616997 113.944427,99.005806 
	C114.021790,95.048904 114.065094,92.008904 114.435120,89.054947 
	C117.128311,90.752419 119.494789,92.363838 121.861267,93.975258 
	C126.257408,96.996078 130.653549,100.016907 134.983734,103.591454 
	C134.616135,104.772789 134.314499,105.400406 134.012863,106.028023 
	C134.012863,106.028023 133.996704,106.001068 133.654724,106.014938 
	C132.210556,107.031502 131.108383,108.034195 130.006195,109.036888 
	C130.006195,109.036888 129.992432,108.995415 129.654388,109.023285 
	C127.875443,110.380272 126.434540,111.709373 124.993622,113.038483 
	C124.993622,113.038475 124.999695,112.999336 124.728485,113.070442 
	C123.962677,113.468216 123.468086,113.794891 122.973488,114.121559 
z"/>
<path fill="#DF984E" opacity="1.000000" stroke="none" 
	d="
M164.500885,120.717072 
	C163.330017,119.404312 162.392914,117.937508 161.297165,116.008522 
	C160.744553,115.032852 160.350601,114.519363 159.956635,114.005882 
	C159.956635,114.005882 160.000977,113.994087 159.808243,113.739075 
	C158.397415,112.992668 157.179321,112.501282 155.961227,112.009888 
	C155.961227,112.009888 156.007004,111.994263 155.905060,111.695999 
	C153.052612,108.787239 150.302124,106.176727 147.551620,103.566208 
	C150.019257,101.671783 152.345703,99.546288 154.985367,97.933388 
	C159.752792,95.020363 163.117294,91.016548 165.707718,85.788834 
	C166.784607,86.011391 167.549698,86.444504 168.912262,87.278267 
	C172.387695,87.766106 175.265656,87.853287 178.143616,87.940475 
	C178.143616,87.940475 178.565750,88.140465 178.776718,88.508202 
	C178.954269,89.253197 178.920853,89.630447 178.661423,89.891090 
	C177.994431,89.524773 177.553467,89.275070 176.661453,88.987381 
	C169.016449,88.851387 169.016449,88.851387 169.150040,95.291626 
	C168.790817,96.842529 168.439728,98.092552 167.796600,99.138596 
	C164.642410,96.900909 163.673676,98.562035 164.183014,101.056786 
	C164.544662,102.828133 166.053482,104.365257 167.050278,106.006920 
	C167.050278,106.006920 167.123077,106.420845 167.224670,106.961670 
	C168.557678,109.281387 169.789108,111.060280 171.020523,112.839172 
	C171.633057,115.173462 172.511459,117.623451 168.386078,118.074699 
	C166.925781,118.917557 165.830215,119.740288 164.500885,120.717072 
z"/>
<path fill="#C0773F" opacity="1.000000" stroke="none" 
	d="
M121.866730,93.568420 
	C119.494789,92.363838 117.128311,90.752419 114.206528,89.012115 
	C113.651230,88.883240 113.193954,88.810753 113.193954,88.810753 
	C112.912689,88.453636 112.631424,88.096519 112.231178,87.544907 
	C112.112198,87.350403 112.565575,87.210808 113.033127,87.132927 
	C113.666176,87.023796 113.831673,86.992546 114.288010,86.980965 
	C114.996460,86.649467 115.414055,86.298302 115.866440,85.944122 
	C115.901237,85.941109 115.883537,85.873634 115.883537,85.873634 
	C116.395279,85.588188 116.907013,85.302750 117.674622,84.876144 
	C121.377609,86.545990 122.420013,89.481857 121.866730,93.568420 
z"/>
<path fill="#D18439" opacity="1.000000" stroke="none" 
	d="
M147.271851,103.635086 
	C150.302124,106.176727 153.052612,108.787239 155.900085,111.719673 
	C152.705902,109.793579 149.414734,107.545563 145.884262,105.022659 
	C146.094009,104.399841 146.543060,104.051903 147.271851,103.635086 
z"/>
<path fill="#D18439" opacity="1.000000" stroke="none" 
	d="
M134.309631,105.974472 
	C134.314499,105.400406 134.616135,104.772789 135.152191,103.880295 
	C135.743256,103.707115 136.099915,103.798828 136.703552,104.017471 
	C136.169144,104.736572 135.387772,105.328743 134.309631,105.974472 
z"/>
<path fill="#90DAE1" opacity="1.000000" stroke="none" 
	d="
M184.144562,58.272072 
	C184.525589,58.248894 184.906601,58.225716 185.637573,58.503006 
	C186.096024,59.201565 186.204529,59.599648 186.313034,59.997734 
	C184.950058,61.174305 183.587067,62.350872 182.893906,62.949223 
	C181.558701,61.717014 180.883011,61.093456 179.782410,60.351112 
	C179.357483,60.232330 179.019791,60.004623 179.186096,59.723083 
	C180.584991,59.565105 181.827118,59.822685 183.044693,59.735909 
	C183.444061,59.707443 183.779739,58.785450 184.144562,58.272072 
z"/>
<path fill="#90DAE1" opacity="1.000000" stroke="none" 
	d="
M173.253723,64.337997 
	C173.229218,63.272594 173.485672,61.984291 174.220398,60.291195 
	C175.771347,59.940292 176.844055,59.994175 177.975815,60.291054 
	C178.038406,60.700718 178.041946,60.867390 178.045471,61.034065 
	C176.541885,62.061077 175.038284,63.088081 173.253723,64.337997 
z"/>
<path fill="#90DAE1" opacity="1.000000" stroke="none" 
	d="
M174.704010,65.341385 
	C176.009842,64.630234 177.133392,64.162277 178.256958,63.694321 
	C178.377960,64.051025 178.498978,64.407738 178.619995,64.764442 
	C177.253906,65.037827 175.887833,65.311203 174.704010,65.341385 
z"/>
<path fill="#037286" opacity="1.000000" stroke="none" 
	d="
M186.527893,60.120537 
	C186.204529,59.599648 186.096024,59.201565 185.923889,58.500023 
	C186.546371,58.950119 187.232468,59.703671 187.964661,60.735867 
	C187.588058,60.757454 187.165405,60.500397 186.527893,60.120537 
z"/>
<path fill="#90DAE1" opacity="1.000000" stroke="none" 
	d="
M168.696716,64.131058 
	C169.085587,64.132263 169.579636,64.267441 170.132721,64.700310 
	C169.728455,64.753677 169.265167,64.509346 168.696716,64.131058 
z"/>
<path fill="#31889E" opacity="1.000000" stroke="none" 
	d="
M178.441803,60.930351 
	C178.041946,60.867390 178.038406,60.700718 178.251404,60.276535 
	C178.651886,60.014225 178.835846,60.009426 179.019791,60.004623 
	C179.019791,60.004623 179.357483,60.232330 179.483582,60.391594 
	C179.352493,60.642788 179.095322,60.734715 178.441803,60.930351 
z"/>
<path fill="#19818E" opacity="1.000000" stroke="none" 
	d="
M179.186096,59.723083 
	C178.835846,60.009426 178.651886,60.014225 178.192352,60.033543 
	C176.844055,59.994175 175.771347,59.940292 174.294098,59.891712 
	C173.889557,59.897018 173.943207,59.936024 173.785858,59.654942 
	C172.077148,58.748512 170.525803,58.123169 168.974426,57.497826 
	C168.207626,56.488354 167.440826,55.478882 166.840591,54.244022 
	C168.104462,53.731930 169.201752,53.445229 170.998474,53.058601 
	C173.460220,52.300747 175.222549,51.642811 176.984879,50.984879 
	C177.475327,50.741081 177.965790,50.497284 178.901917,49.983490 
	C179.602829,49.502300 179.829224,49.263737 180.026779,48.997803 
	C184.360458,50.377762 185.722153,53.261303 184.244232,57.901550 
	C183.779739,58.785450 183.444061,59.707443 183.044693,59.735909 
	C181.827118,59.822685 180.584991,59.565105 179.186096,59.723083 
M173.892365,56.991295 
	C174.553055,56.813217 175.213745,56.635136 175.874435,56.457054 
	C175.654587,56.080151 175.434753,55.703247 175.214920,55.326344 
	C174.612244,55.873791 174.009583,56.421242 173.892365,56.991295 
M176.470459,58.496090 
	C176.470459,58.496090 176.512573,58.479435 176.470459,58.496090 
z"/>
<path fill="#068497" opacity="1.000000" stroke="none" 
	d="
M176.852112,50.716713 
	C175.222549,51.642811 173.460220,52.300747 171.331390,52.987072 
	C171.983841,50.144024 172.986969,47.237129 176.852112,50.716713 
z"/>
<path fill="#068497" opacity="1.000000" stroke="none" 
	d="
M179.830109,49.146248 
	C179.829224,49.263737 179.602829,49.502300 179.142960,49.853443 
	C179.150299,49.740868 179.382004,49.507969 179.830109,49.146248 
z"/>
<path fill="#19818E" opacity="1.000000" stroke="none" 
	d="
M113.008621,48.992844 
	C113.383804,49.214520 113.758690,49.432468 114.108406,49.685242 
	C114.153381,49.717758 114.067703,49.931023 114.042557,50.060558 
	C113.734436,49.847858 113.426323,49.635155 113.052383,49.219162 
	C112.986572,49.015865 113.000534,48.999878 113.008621,48.992844 
z"/>
<path fill="#5EB7D4" opacity="1.000000" stroke="none" 
	d="
M168.968323,57.901901 
	C170.525803,58.123169 172.077148,58.748512 173.795624,59.686630 
	C172.295883,59.434929 170.629028,58.870453 168.968323,57.901901 
z"/>
<path fill="#0F8193" opacity="1.000000" stroke="none" 
	d="
M147.993469,48.339741 
	C148.259766,48.274704 148.345398,48.512962 148.142761,48.934700 
	C148.057449,49.052341 148.015717,48.577190 147.993469,48.339741 
z"/>
<path fill="#F9BC1A" opacity="1.000000" stroke="none" 
	d="
M123.916641,121.714706 
	C136.987488,121.351532 150.091171,121.242706 163.680573,121.176498 
	C163.791672,121.965523 163.417038,122.711929 163.130020,123.283775 
	C165.078354,124.029472 167.920425,124.716438 170.323700,126.142738 
	C173.069580,127.772346 173.218170,129.626373 169.253433,130.552399 
	C167.601227,130.699066 166.216248,130.699234 164.415787,130.663925 
	C159.062637,130.422531 154.126236,130.084839 149.187012,130.036774 
	C137.103546,129.919174 125.018784,129.935364 112.471878,129.830719 
	C112.196396,129.563690 112.396179,129.377167 113.184128,129.082886 
	C126.407555,128.472610 139.055420,127.983559 151.703293,127.494514 
	C151.690216,126.992981 151.677155,126.491447 151.664078,125.989914 
	C141.105408,125.989914 130.546753,125.989914 119.988091,125.989914 
	C121.077553,125.330818 122.167007,124.671722 124.082886,124.008858 
	C133.621689,124.005089 142.334061,124.005089 151.046448,124.005089 
	C151.048218,123.669807 151.049988,123.334518 151.051758,122.999237 
	C142.052475,122.999237 133.053192,122.999237 124.053902,122.999237 
	C124.019096,122.655838 123.984291,122.312447 123.916641,121.714706 
z"/>
<path fill="#91ABBD" opacity="1.000000" stroke="none" 
	d="
M120.985626,134.142075 
	C134.027267,133.967239 147.050476,133.962967 160.542572,133.919159 
	C161.258606,134.045593 161.481079,134.239807 161.790771,134.651291 
	C148.560898,134.850510 135.219116,134.860703 121.417496,134.763260 
	C120.957634,134.655624 120.967194,134.312637 120.985626,134.142075 
z"/>
<path fill="#F9BC1A" opacity="1.000000" stroke="none" 
	d="
M107.250778,129.851913 
	C107.234627,129.666153 107.492973,129.619629 107.892197,129.763458 
	C107.843521,129.840744 107.674255,129.853195 107.250778,129.851913 
z"/>
<path fill="#FAC00A" opacity="1.000000" stroke="none" 
	d="
M119.602493,125.997406 
	C130.546753,125.989914 141.105408,125.989914 151.664078,125.989914 
	C151.677155,126.491447 151.690216,126.992981 151.703293,127.494514 
	C139.055420,127.983559 126.407555,128.472610 113.350113,128.960541 
	C115.032669,127.974586 117.124779,126.989738 119.602493,125.997406 
z"/>
<path fill="#FAC00A" opacity="1.000000" stroke="none" 
	d="
M124.029282,123.248337 
	C133.053192,122.999237 142.052475,122.999237 151.051758,122.999237 
	C151.049988,123.334518 151.048218,123.669807 151.046448,124.005089 
	C142.334061,124.005089 133.621689,124.005089 124.436546,124.000740 
	C123.977409,123.830070 123.991035,123.663750 124.029282,123.248337 
z"/>
<path fill="#F9BC1A" opacity="1.000000" stroke="none" 
	d="
M113.153358,89.265869 
	C113.193954,88.810753 113.651230,88.883240 113.879822,88.926071 
	C114.065094,92.008904 114.021790,95.048904 113.929855,98.539223 
	C113.625069,95.900024 113.368912,92.810501 113.153358,89.265869 
z"/>
<path fill="#F9BC1A" opacity="1.000000" stroke="none" 
	d="
M113.709000,114.234566 
	C113.892616,114.755455 113.927719,115.505363 113.916733,116.628586 
	C113.767258,116.155800 113.663872,115.309692 113.709000,114.234566 
z"/>
<path fill="#F9BC1A" opacity="1.000000" stroke="none" 
	d="
M113.985046,121.023529 
	C113.968346,121.046356 113.840805,121.078285 113.898247,121.054764 
	C113.955688,121.031235 114.001755,121.000702 113.985046,121.023529 
z"/>
<path fill="#C4C8CE" opacity="1.000000" stroke="none" 
	d="
M113.997162,86.961304 
	C113.831673,86.992546 113.666176,87.023796 113.248909,87.034439 
	C113.800423,86.534851 114.603714,86.055878 115.645271,85.725266 
	C115.883537,85.873634 115.901237,85.941109 115.607681,86.007874 
	C114.875130,86.370186 114.436142,86.665741 113.997162,86.961304 
z"/>
<path fill="#ECB718" opacity="1.000000" stroke="none" 
	d="
M168.088654,99.342575 
	C168.439728,98.092552 168.790817,96.842529 169.512115,95.289474 
	C172.292404,92.999413 174.702454,91.012390 177.112503,89.025368 
	C177.553467,89.275070 177.994431,89.524773 178.731110,90.349197 
	C178.505173,95.311928 177.983505,99.699936 177.461838,104.087936 
	C176.560532,104.303970 175.659210,104.520012 174.194580,104.907661 
	C171.783722,103.167046 169.936188,101.254814 168.088654,99.342575 
z"/>
<path fill="#DAD9DA" opacity="1.000000" stroke="none" 
	d="
M167.796616,99.138596 
	C169.936188,101.254814 171.783722,103.167046 173.959488,105.094162 
	C174.814529,107.571762 175.341339,110.034485 175.868134,112.497208 
	C175.575806,112.617729 175.283463,112.738251 174.991119,112.858772 
	C173.465027,110.558044 172.064957,108.154816 170.331100,106.023079 
	C169.850967,105.432785 168.378815,105.649345 167.206055,105.751312 
	C166.053482,104.365257 164.544662,102.828133 164.183014,101.056786 
	C163.673676,98.562035 164.642410,96.900909 167.796616,99.138596 
z"/>
<path fill="#9EB4B7" opacity="1.000000" stroke="none" 
	d="
M182.565552,96.897018 
	C182.655396,99.063812 182.745224,101.230598 182.959457,103.849281 
	C182.958801,105.035507 182.833771,105.769844 182.609055,107.089508 
	C181.767578,105.519783 181.233673,104.523834 180.449432,102.971344 
	C180.177521,100.665184 180.155945,98.915565 180.440308,97.152283 
	C181.352676,97.058090 181.959122,96.977554 182.565552,96.897018 
z"/>
<path fill="#766525" opacity="1.000000" stroke="none" 
	d="
M180.134369,97.165939 
	C180.155945,98.915565 180.177521,100.665184 180.204071,102.863770 
	C179.536377,103.686615 178.863708,104.060493 177.826447,104.261154 
	C177.983505,99.699936 178.505173,95.311928 178.957153,90.465820 
	C178.920853,89.630447 178.954269,89.253197 178.994553,88.592461 
	C179.001419,88.308983 179.420609,88.184570 179.685440,88.611450 
	C180.011627,91.747528 180.072998,94.456734 180.134369,97.165939 
z"/>
<path fill="#DAD9DA" opacity="1.000000" stroke="none" 
	d="
M170.999832,112.502289 
	C169.789108,111.060280 168.557678,109.281387 167.284485,107.163109 
	C168.488190,108.604286 169.733673,110.384850 170.999832,112.502289 
z"/>
<path fill="#CDCED4" opacity="1.000000" stroke="none" 
	d="
M180.440308,97.152283 
	C180.072998,94.456734 180.011627,91.747528 179.903641,88.597473 
	C180.198212,87.667130 180.539413,87.177635 180.880615,86.688141 
	C181.332855,87.290939 181.785080,87.893738 182.400726,88.729828 
	C182.591385,91.316422 182.618637,93.669716 182.605713,96.460007 
	C181.959122,96.977554 181.352676,97.058090 180.440308,97.152283 
z"/>
<path fill="#CDCED4" opacity="1.000000" stroke="none" 
	d="
M178.135406,87.583664 
	C175.265656,87.853287 172.387695,87.766106 169.231964,87.373360 
	C171.537033,86.251869 174.119888,85.435936 176.874741,84.292610 
	C177.406891,85.052422 177.767059,86.139641 178.135406,87.583664 
z"/>
<path fill="#056B7C" opacity="1.000000" stroke="none" 
	d="
M155.989822,25.215446 
	C155.908325,24.222267 155.880173,22.880669 156.041443,21.300533 
	C156.423492,21.526302 156.616135,21.990602 156.842789,22.705421 
	C156.598923,23.592966 156.321030,24.229998 155.989822,25.215446 
z"/>
<path fill="#19818E" opacity="1.000000" stroke="none" 
	d="
M150.888779,22.430775 
	C151.555542,22.533026 152.257935,22.947344 153.093658,23.643919 
	C152.735886,23.942579 152.244781,23.958981 151.385895,23.984085 
	C150.986877,23.576141 150.955643,23.159492 150.888779,22.430775 
z"/>
<path fill="#047A8D" opacity="1.000000" stroke="none" 
	d="
M155.053314,27.017284 
	C154.938431,26.889854 155.309830,26.773087 155.503113,26.752634 
	C155.733643,26.947260 155.770920,27.162336 155.808197,27.377415 
	C155.594849,27.299850 155.381516,27.222282 155.053314,27.017284 
z"/>
<path fill="#047A8D" opacity="1.000000" stroke="none" 
	d="
M158.492096,26.492588 
	C158.513519,26.484251 158.470673,26.500923 158.492096,26.492588 
z"/>
<path fill="#D18439" opacity="1.000000" stroke="none" 
	d="
M125.314850,112.950203 
	C126.434540,111.709373 127.875443,110.380272 129.674988,109.030579 
	C128.567764,110.293976 127.101913,111.577950 125.314850,112.950203 
z"/>
<path fill="#D18439" opacity="1.000000" stroke="none" 
	d="
M130.326477,108.970505 
	C131.108383,108.034195 132.210556,107.031502 133.667633,106.022934 
	C132.897293,106.979408 131.772034,107.941765 130.326477,108.970505 
z"/>
<path fill="#D18439" opacity="1.000000" stroke="none" 
	d="
M156.160324,112.282974 
	C157.179321,112.501282 158.397415,112.992668 159.813065,113.761505 
	C158.793549,113.544655 157.576492,113.050362 156.160324,112.282974 
z"/>
<path fill="#D18439" opacity="1.000000" stroke="none" 
	d="
M160.007660,114.290817 
	C160.350601,114.519363 160.744553,115.032852 161.072403,115.769150 
	C160.690414,115.519897 160.374557,115.047821 160.007660,114.290817 
z"/>
<path fill="#D18439" opacity="1.000000" stroke="none" 
	d="
M123.260208,114.036041 
	C123.468086,113.794891 123.962677,113.468216 124.748131,113.067894 
	C124.541634,113.313004 124.044281,113.631767 123.260208,114.036041 
z"/>
<path fill="#FEDC11" opacity="1.000000" stroke="none" 
	d="
M176.661453,88.987381 
	C174.702454,91.012390 172.292404,92.999413 169.520264,94.988594 
	C169.016449,88.851387 169.016449,88.851387 176.661453,88.987381 
z"/>
<path fill="#CAC6B6" opacity="1.000000" stroke="none" 
	d="
M114.288010,86.980957 
	C114.436142,86.665741 114.875130,86.370186 115.572884,86.010880 
	C115.414055,86.298302 114.996460,86.649467 114.288010,86.980957 
z"/>
<path fill="#118494" opacity="1.000000" stroke="none" 
	d="
M173.649628,56.979992 
	C174.009583,56.421242 174.612244,55.873791 175.214920,55.326344 
	C175.434753,55.703247 175.654587,56.080151 175.874435,56.457054 
	C175.213745,56.635136 174.553055,56.813217 173.649628,56.979992 
z"/>
<path fill="#118494" opacity="1.000000" stroke="none" 
	d="
M176.491516,58.487762 
	C176.512573,58.479435 176.470459,58.496090 176.491516,58.487762 
z"/>
</svg>