<svg version="1.1" id="Layer_1" xmlns="http://www.w3.org/2000/svg" xmlns:xlink="http://www.w3.org/1999/xlink" x="0px" y="0px"
	 width="100%" viewBox="0 0 275 183" enable-background="new 0 0 275 183" xml:space="preserve">
<path fill="#EBFEFD" opacity="1.000000" stroke="none" 
	d="
M180.000000,184.000000 
	C120.000008,184.000000 60.500015,184.000000 1.000016,184.000000 
	C1.000011,123.000015 1.000011,62.000031 1.000005,1.000032 
	C92.666649,1.000022 184.333298,1.000022 275.999939,1.000011 
	C275.999969,61.999969 275.999969,122.999939 276.000000,183.999954 
	C244.166672,184.000000 212.333328,184.000000 180.000000,184.000000 
M146.000000,51.999847 
	C146.000000,51.999847 146.039963,52.035927 145.337906,52.014343 
	C144.872955,52.989777 144.408005,53.965210 144.000900,54.997921 
	C144.000900,54.997921 143.936737,54.948696 143.221527,54.975082 
	C142.837708,56.004307 142.453903,57.033535 142.001221,57.999237 
	C142.001221,57.999237 142.073746,58.059719 141.402756,58.126728 
	C141.244522,58.726665 141.086304,59.326599 141.000977,59.992680 
	C141.000977,59.992680 140.921005,59.936935 140.223312,59.959614 
	C136.673508,67.640198 133.123718,75.320778 129.108215,83.543976 
	C128.157135,87.522797 127.075119,91.475822 126.285049,95.486359 
	C125.035263,101.830528 128.050919,104.990479 134.193207,103.950485 
	C139.830643,102.995964 145.461517,102.002586 151.007538,101.955994 
	C151.004929,121.781601 150.963379,141.607315 151.020004,161.432755 
	C151.040894,168.746399 155.305115,173.890915 161.741211,173.933472 
	C179.731567,174.052490 197.723846,173.947342 215.714432,173.809174 
	C216.900940,173.800064 218.140442,172.870102 219.251297,172.196884 
	C223.841446,169.415161 224.534653,165.003525 224.525330,160.092636 
	C224.463959,127.772163 224.509216,95.451477 225.207382,62.985760 
	C226.922668,62.367455 228.677872,61.840961 230.346725,61.115810 
	C240.534225,56.689140 246.951233,45.987251 246.001297,35.097157 
	C245.029434,23.955490 237.132599,14.638951 226.348190,11.969685 
	C213.707779,8.841038 204.422241,14.070115 196.048035,23.725542 
	C184.928040,23.721785 173.807327,23.640154 162.688309,23.742531 
	C155.654602,23.807295 151.339813,28.149157 151.008636,35.195736 
	C150.923035,37.017426 150.795837,38.872753 151.033234,40.666920 
	C151.599167,44.944126 150.320282,48.351990 146.256989,51.012047 
	C146.183548,51.354301 146.110107,51.696556 146.000000,51.999847 
M127.976860,173.964767 
	C136.622726,173.964767 145.268600,173.964767 153.914474,173.964767 
	C153.910980,173.668518 153.907471,173.372269 153.903961,173.076019 
	C144.951355,173.076019 135.998734,173.076019 126.101410,173.017593 
	C118.468552,173.017593 110.835693,173.017593 103.202835,173.017593 
	C103.206528,173.319717 103.210213,173.621857 103.213905,173.923981 
	C111.158012,173.923981 119.102127,173.923981 127.976860,173.964767 
M19.912718,47.734543 
	C20.311050,48.440216 20.709383,49.145885 21.107718,49.851559 
	C21.451303,49.270802 21.794888,48.690041 22.811440,48.073551 
	C24.206972,48.478832 25.602505,48.884117 26.977629,49.283470 
	C27.691147,48.268024 28.370913,47.300610 29.432257,45.790154 
	C27.967318,46.595734 26.984343,47.136284 26.713593,47.285168 
	C25.443935,45.467464 24.224319,43.721401 22.895142,42.045845 
	C22.895142,42.045845 22.921356,41.811630 22.921356,41.811630 
	C22.921356,41.811630 23.031042,41.991531 23.211397,42.836193 
	C21.143246,43.262135 19.075096,43.688076 16.847782,44.146797 
	C16.847782,44.871429 16.847782,46.442970 16.847782,48.085194 
	C17.978161,47.674480 18.880674,47.346561 19.912718,47.734543 
M245.379898,72.177597 
	C245.214767,72.774513 245.049637,73.371422 244.496933,74.228806 
	C244.268112,74.629150 244.039291,75.029495 243.110275,75.671143 
	C241.750015,75.671143 240.389755,75.671143 238.381699,75.671143 
	C239.432510,79.171310 240.327774,82.153297 241.532486,86.166077 
	C242.815781,84.270103 243.407623,83.395691 244.162735,83.537003 
	C246.438538,83.649055 248.801407,84.184921 250.963028,83.740974 
	C252.737259,83.376572 255.805679,81.362289 255.663666,80.913284 
	C254.762848,78.065109 256.446838,73.306183 250.325241,73.197037 
	C249.882553,73.289551 249.439865,73.382065 248.591385,72.844933 
	C247.727859,72.584511 246.864334,72.324089 245.379898,72.177597 
M39.340988,149.715134 
	C46.099094,149.811996 42.497746,143.680344 45.391838,141.454010 
	C45.106720,141.127640 44.821602,140.801270 44.536480,140.474899 
	C43.352589,140.630066 42.168697,140.785233 40.294575,140.812088 
	C39.043091,138.578262 37.791611,136.344421 36.299393,133.680893 
	C35.543686,135.495972 34.944347,136.935486 34.354347,138.352570 
	C32.652264,138.352570 31.066126,138.352570 29.577400,138.352570 
	C26.457771,148.704147 26.639452,148.953308 36.999855,149.003113 
	C37.663216,149.006302 38.326485,149.028076 39.340988,149.715134 
M115.217453,46.470448 
	C114.232277,47.057323 112.719009,47.422028 112.361092,48.272797 
	C111.294365,50.808331 109.581299,53.833420 110.197754,56.103138 
	C110.824120,58.409321 113.759438,61.349239 115.981438,61.626717 
	C118.488190,61.939747 122.163742,60.291439 123.856140,58.264656 
	C128.024185,53.273102 123.624321,46.862267 115.217453,46.470448 
M112.187309,105.609917 
	C112.571457,106.966888 112.955605,108.323868 113.077667,108.755051 
	C111.529083,111.513321 110.274521,113.747902 108.735809,116.488594 
	C113.947220,116.488594 118.011513,116.488594 123.381180,116.488594 
	C121.495239,113.496231 120.120193,111.314476 118.745148,109.132729 
	C118.982994,109.127243 119.220840,109.121758 119.458687,109.116272 
	C118.848892,107.047676 118.239105,104.979080 117.629318,102.910477 
	C115.891991,103.583565 114.154663,104.256653 112.187309,105.609917 
M80.986961,152.738419 
	C78.700844,149.491486 75.800339,147.879227 72.200996,150.443359 
	C69.466507,152.391373 67.531281,155.535736 70.062386,158.439728 
	C71.656006,160.268097 75.130981,161.805191 77.391960,161.401337 
	C81.205376,160.720215 82.928314,157.547714 80.986961,152.738419 
M58.440205,102.033783 
	C62.846947,101.894363 64.856674,99.074417 64.653580,95.223610 
	C64.484360,92.015152 62.315868,89.882629 58.617119,89.865059 
	C55.113216,89.848412 52.685741,91.380203 52.118313,94.743462 
	C51.429516,98.826080 53.348248,101.455254 58.440205,102.033783 
M231.756348,137.801895 
	C236.059311,139.385529 239.670883,138.268112 240.868332,134.982666 
	C242.237869,131.225098 240.357300,126.886719 236.530548,126.487534 
	C234.468002,126.272385 231.528915,127.366371 230.187317,128.912628 
	C227.886353,131.564560 228.541824,134.778534 231.756348,137.801895 
M27.173395,29.062700 
	C26.505087,27.176350 25.836777,25.289999 25.168467,23.403648 
	C24.684994,23.387604 24.201521,23.371559 23.718046,23.355515 
	C22.662876,25.995045 21.607704,28.634577 20.520073,31.355305 
	C19.598581,28.592924 18.756416,26.068342 17.914251,23.543760 
	C17.275810,23.760065 16.637369,23.976370 15.998928,24.192673 
	C17.157679,28.521736 18.316431,32.850796 19.475182,37.179859 
	C20.008038,37.166042 20.540892,37.152225 21.073746,37.138409 
	C22.174864,34.211597 23.275982,31.284786 24.472607,28.104118 
	C25.601954,31.391439 26.604614,34.309998 27.607275,37.228558 
	C28.248648,37.157505 28.890018,37.086456 29.531389,37.015404 
	C30.525576,32.691078 31.519762,28.366755 32.513947,24.042431 
	C31.864050,23.858725 31.214151,23.675018 30.564255,23.491312 
	C30.013428,25.584501 29.492125,27.686840 28.851835,29.752295 
	C28.804184,29.906010 27.903162,29.795177 27.173395,29.062700 
M53.997177,23.897049 
	C50.481937,24.868879 47.026024,32.450981 48.137997,36.541882 
	C49.729233,35.493999 51.393055,33.520821 52.961922,33.593632 
	C54.804489,33.679138 56.564590,35.541729 58.360458,36.633610 
	C58.735809,36.503082 59.111160,36.372555 59.486511,36.242027 
	C57.850658,32.257221 56.214806,28.272415 53.997177,23.897049 
M88.404846,33.415977 
	C89.970993,34.542545 91.537140,35.669113 93.103287,36.795681 
	C93.499222,36.583359 93.895149,36.371037 94.291084,36.158714 
	C92.468788,31.783041 90.646500,27.407368 88.824203,23.031696 
	C88.232971,23.139280 87.641739,23.246864 87.050507,23.354450 
	C84.956657,27.546005 82.546608,31.632160 82.332802,36.933792 
	C84.538689,35.444485 86.046028,34.426796 88.404846,33.415977 
M95.922218,34.028725 
	C96.197762,34.981155 96.473305,35.933586 96.748840,36.886017 
	C97.063751,36.874172 97.378662,36.862331 97.693573,36.850487 
	C98.174751,35.228600 98.655922,33.606712 99.108131,32.082474 
	C101.891731,31.240051 105.960526,31.824190 105.026077,27.241308 
	C103.627144,20.380400 98.839554,26.897083 95.922226,24.502733 
	C95.922226,27.863642 95.922226,30.507774 95.922218,34.028725 
M39.514633,31.001513 
	C44.794521,29.873251 41.429211,35.601353 44.513821,37.182110 
	C44.513821,32.392529 44.513821,28.151636 44.513821,23.910744 
	C44.156307,23.867468 43.798798,23.824192 43.441284,23.780916 
	C43.072746,25.372248 42.704208,26.963579 42.287205,28.764175 
	C40.672527,28.764175 39.082577,28.764175 37.815662,28.764175 
	C36.883003,26.988626 36.044548,25.392412 35.206089,23.796196 
	C34.765587,23.970190 34.325085,24.144184 33.884579,24.318178 
	C34.080799,28.486214 34.277020,32.654251 34.473240,36.822289 
	C34.890995,36.801338 35.308750,36.780392 35.726505,36.759445 
	C36.705009,34.843281 37.683514,32.927116 39.514633,31.001513 
M113.035126,25.041630 
	C111.440506,24.954615 109.845894,24.867601 107.766159,24.754116 
	C107.973984,28.894323 108.173546,32.869915 108.422829,37.835899 
	C110.895866,34.641064 112.427872,32.661919 113.959877,30.682775 
	C114.053993,30.800781 114.148109,30.918787 114.242226,31.036793 
	C114.957947,29.149141 115.673660,27.261488 116.422409,25.286726 
	C115.923790,25.236227 114.839256,25.126387 113.035126,25.041630 
M62.359287,28.698456 
	C62.517761,31.398367 62.676235,34.098278 62.834709,36.798191 
	C63.460796,36.772972 64.086884,36.747753 64.712975,36.722534 
	C64.900879,33.372341 65.088776,30.022146 65.278603,26.637638 
	C66.580765,26.192263 67.822655,25.767502 69.064545,25.342741 
	C69.006516,25.044258 68.948486,24.745773 68.890457,24.447290 
	C65.438339,24.447290 61.986221,24.447290 57.825256,24.447290 
	C59.800377,25.931293 61.063526,26.880356 62.359287,28.698456 
M75.168030,28.402121 
	C74.310181,27.105106 73.452339,25.808092 72.621353,24.551693 
	C69.691940,27.837934 70.174217,29.103699 75.013832,31.021463 
	C76.089325,31.447645 76.944778,32.429115 77.901550,33.154907 
	C76.909065,33.778557 75.929207,34.423721 74.918579,35.016434 
	C74.441383,35.296307 73.905220,35.475643 72.448792,36.118561 
	C76.665649,37.506157 79.521126,37.067123 80.528503,33.688549 
	C81.581116,30.158266 78.562126,29.336460 75.168030,28.402121 
M41.735538,41.920513 
	C39.978439,41.630894 38.221340,41.341274 35.800907,40.942318 
	C35.993340,44.511715 36.136509,47.167351 36.279682,49.822983 
	C37.807064,48.621784 38.560642,46.351875 38.840469,46.408848 
	C42.721859,47.199093 41.733940,44.516342 41.735538,41.920513 
M240.514908,161.065918 
	C242.103394,162.913254 243.866409,163.958603 245.613037,161.414047 
	C246.357193,160.329941 246.537155,158.858551 246.973495,157.563156 
	C244.760727,157.311264 242.547958,157.059357 240.335190,156.807465 
	C240.231659,158.048111 240.128113,159.288773 240.514908,161.065918 
M46.659359,49.317860 
	C46.985584,48.296616 47.311806,47.275375 47.835445,45.636108 
	C49.077644,47.104076 49.890827,48.065056 50.704010,49.026035 
	C50.912228,48.907207 51.120449,48.788383 51.328667,48.669556 
	C50.735001,46.596142 50.141331,44.522728 49.637886,42.764427 
	C49.210365,43.068016 48.446804,43.610229 47.559540,44.240288 
	C47.021469,43.122597 46.545818,42.134563 46.070164,41.146526 
	C45.618671,41.240498 45.167175,41.334465 44.715683,41.428432 
	C45.140114,44.185204 45.564548,46.941975 46.659359,49.317860 
M58.473133,44.822620 
	C57.129341,43.942516 55.785549,43.062416 54.555626,42.256889 
	C54.555626,44.729698 54.555626,47.263355 54.555626,49.623226 
	C56.874294,49.623226 58.774456,49.623226 60.674618,49.623226 
	C60.668873,49.391445 60.663124,49.159668 60.657375,48.927887 
	C59.165081,48.794220 57.672783,48.660549 54.740356,48.397881 
	C56.983913,46.670238 58.141056,45.779186 58.473133,44.822620 
M260.184418,173.020401 
	C253.783722,173.020401 247.383011,173.020401 240.982315,173.020401 
	C240.986374,173.257950 240.990417,173.495483 240.994476,173.733032 
	C248.971466,173.733032 256.948456,173.733032 264.925446,173.733032 
	C264.929810,173.555679 264.934174,173.378342 264.938538,173.200989 
	C263.651215,173.140823 262.363861,173.080658 260.184418,173.020401 
M75.922867,23.477209 
	C75.503082,23.577753 75.083298,23.678297 74.663513,23.778841 
	C74.759903,24.035500 74.856285,24.292158 74.952667,24.548817 
	C75.390747,24.290318 75.828835,24.031816 75.922867,23.477209 
M28.504990,63.170139 
	C29.390194,62.973442 30.275396,62.776741 31.160599,62.580040 
	C31.015244,62.178707 30.869888,61.777374 30.724533,61.376041 
	C29.658636,61.926399 28.592739,62.476753 28.504990,63.170139 
z"/>
<path fill="#CECEC4" opacity="1.000000" stroke="none" 
	d="
M151.095276,101.026321 
	C145.461517,102.002586 139.830643,102.995964 134.193207,103.950485 
	C128.050919,104.990479 125.035263,101.830528 126.285049,95.486359 
	C127.075119,91.475822 128.157135,87.522797 129.689880,83.250908 
	C130.501389,82.971191 130.731201,82.984543 130.956512,83.392029 
	C130.086456,88.148575 129.083771,92.491356 128.454224,96.887573 
	C128.301697,97.952728 129.100479,99.750206 129.975143,100.189949 
	C130.767441,100.588295 132.809097,99.964966 133.355606,99.154976 
	C137.365356,93.212067 141.137573,87.108894 145.113708,80.713593 
	C146.471466,77.656670 147.700195,74.942406 149.286224,72.119545 
	C151.033493,68.501877 152.773087,65.085228 153.730789,61.461895 
	C155.136444,56.143719 157.479065,50.760174 155.066620,45.051888 
	C156.612549,45.693996 157.805267,46.429317 158.998566,47.373398 
	C158.999146,47.582161 159.000153,48.002277 159.110168,48.314545 
	C160.138153,50.091927 161.056091,51.557041 161.989731,53.367584 
	C162.684738,54.813473 163.364075,55.913925 164.058167,57.313881 
	C164.363663,58.104790 164.654419,58.596203 165.003677,59.435238 
	C166.094543,61.217937 167.173126,62.622253 168.151703,64.093094 
	C174.404175,73.490616 182.986786,80.099663 193.018341,85.261810 
	C189.659424,92.714088 186.319138,99.868164 182.637634,106.862755 
	C176.201157,104.906906 170.105865,103.110535 163.807861,100.953163 
	C161.088623,100.710213 158.572144,100.828262 155.796631,101.010925 
	C155.189133,101.080246 154.840637,101.084969 154.280457,100.843292 
	C153.077591,100.740036 152.086441,100.883186 151.095276,101.026321 
z"/>
<path fill="#41AD51" opacity="1.000000" stroke="none" 
	d="
M196.976425,23.830627 
	C204.422241,14.070115 213.707779,8.841038 226.348190,11.969685 
	C237.132599,14.638951 245.029434,23.955490 246.001297,35.097157 
	C246.951233,45.987251 240.534225,56.689140 230.346725,61.115810 
	C228.677872,61.840961 226.922668,62.367455 224.447510,63.042854 
	C222.857895,63.143185 222.028152,63.186428 220.847107,63.208824 
	C220.035889,63.260128 219.575974,63.332275 218.735321,63.323467 
	C217.581696,63.224350 216.808823,63.206192 215.659042,63.102673 
	C211.504639,61.397388 207.727158,59.777466 203.696426,57.933689 
	C200.903000,54.492756 198.362808,51.275677 195.819824,47.836708 
	C195.766525,47.283379 195.579666,47.073101 195.198395,46.568783 
	C194.671265,42.419167 194.202209,38.684750 193.784393,34.545883 
	C194.882568,30.704496 195.929504,27.267563 196.976425,23.830627 
M226.000092,24.132406 
	C215.612885,20.593458 207.445694,25.789356 205.902969,36.670097 
	C205.597244,38.826241 204.246964,40.840683 203.336700,42.902065 
	C202.865982,43.968029 202.303848,44.993626 201.783020,46.037460 
	C201.883057,46.515179 201.983078,46.992897 202.083115,47.470612 
	C208.117889,43.434872 211.417847,48.620251 215.739410,50.336445 
	C216.588562,50.673668 217.284470,51.733494 218.092834,51.783413 
	C224.451447,52.176056 231.781769,47.261967 233.687057,41.493408 
	C235.850342,34.943733 233.378159,28.936853 226.000092,24.132406 
z"/>
<path fill="#020202" opacity="1.000000" stroke="none" 
	d="
M221.198395,63.229668 
	C222.028152,63.186428 222.857895,63.143185 224.103668,63.115402 
	C224.509216,95.451477 224.463959,127.772163 224.525330,160.092636 
	C224.534653,165.003525 223.841446,169.415161 219.251297,172.196884 
	C218.140442,172.870102 216.900940,173.800064 215.714432,173.809174 
	C197.723846,173.947342 179.731567,174.052490 161.741211,173.933472 
	C155.305115,173.890915 151.040894,168.746399 151.020004,161.432755 
	C150.963379,141.607315 151.004929,121.781601 151.051407,101.491165 
	C152.086441,100.883186 153.077591,100.740036 154.165710,101.293625 
	C154.254272,120.909164 154.224792,139.828003 154.247910,158.746765 
	C154.257095,166.267181 157.378464,169.101212 165.284790,168.777390 
	C165.698624,168.748169 165.850388,168.650299 166.468307,168.599182 
	C173.547699,168.677628 180.160965,168.709305 187.250168,168.827301 
	C195.548172,168.918686 203.370270,168.945221 211.192245,168.922577 
	C218.424850,168.901642 221.238525,166.276031 221.246201,159.090103 
	C221.280380,127.136681 221.222809,95.183159 221.198395,63.229668 
z"/>
<path fill="#050505" opacity="1.000000" stroke="none" 
	d="
M196.512238,23.778084 
	C195.929504,27.267563 194.882568,30.704496 193.345352,34.543396 
	C188.859695,34.942905 184.850449,35.127579 180.876755,34.832825 
	C179.550812,34.734470 177.192368,33.365501 177.220230,32.652084 
	C177.411804,27.742676 174.348663,27.852446 170.967697,27.984941 
	C168.141876,28.095684 165.304810,27.922750 162.479294,28.037355 
	C157.703461,28.231071 154.684723,30.973318 154.385452,35.746742 
	C154.190216,38.860435 154.583649,42.011032 154.713394,45.145100 
	C157.479065,50.760174 155.136444,56.143719 153.730789,61.461895 
	C152.773087,65.085228 151.033493,68.501877 149.006516,71.937065 
	C148.827606,70.371315 149.285706,68.879440 149.739929,67.400139 
	C144.085388,65.226295 140.538528,66.969765 138.069611,72.997673 
	C135.610260,79.002243 136.646683,82.233223 141.729019,84.572975 
	C142.823807,83.390404 143.904236,82.223320 144.984680,81.056244 
	C141.137573,87.108894 137.365356,93.212067 133.355606,99.154976 
	C132.809097,99.964966 130.767441,100.588295 129.975143,100.189949 
	C129.100479,99.750206 128.301697,97.952728 128.454224,96.887573 
	C129.083771,92.491356 130.086456,88.148575 131.217255,83.141586 
	C134.628647,74.976990 137.774826,67.456963 140.921005,59.936935 
	C140.921005,59.936935 141.000977,59.992680 141.294067,59.935928 
	C141.749359,59.272690 141.911545,58.666203 142.073746,58.059719 
	C142.073746,58.059719 142.001221,57.999237 142.366989,57.970108 
	C143.134079,56.943550 143.535400,55.946121 143.936737,54.948692 
	C143.936737,54.948696 144.000900,54.997921 144.305084,54.948151 
	C145.086166,53.944229 145.563065,52.990082 146.039963,52.035927 
	C146.039963,52.035927 146.000000,51.999847 146.315430,51.987007 
	C146.687439,51.611145 146.744034,51.248123 146.800613,50.885101 
	C150.320282,48.351990 151.599167,44.944126 151.033234,40.666920 
	C150.795837,38.872753 150.923035,37.017426 151.008636,35.195736 
	C151.339813,28.149157 155.654602,23.807295 162.688309,23.742531 
	C173.807327,23.640154 184.928040,23.721785 196.512238,23.778084 
z"/>
<path fill="#B2E1B8" opacity="1.000000" stroke="none" 
	d="
M115.577065,46.336189 
	C123.624321,46.862267 128.024185,53.273102 123.856140,58.264656 
	C122.163742,60.291439 118.488190,61.939747 115.981438,61.626717 
	C113.759438,61.349239 110.824120,58.409321 110.197754,56.103138 
	C109.581299,53.833420 111.294365,50.808331 112.361092,48.272797 
	C112.719009,47.422028 114.232277,47.057323 115.577065,46.336189 
z"/>
<path fill="#5A5860" opacity="1.000000" stroke="none" 
	d="
M112.302322,105.269821 
	C114.154663,104.256653 115.891991,103.583565 117.629318,102.910477 
	C118.239105,104.979080 118.848892,107.047676 119.458687,109.116272 
	C119.220840,109.121758 118.982994,109.127243 118.745148,109.132729 
	C120.120193,111.314476 121.495239,113.496231 123.381180,116.488594 
	C118.011513,116.488594 113.947220,116.488594 108.735809,116.488594 
	C110.274521,113.747902 111.529083,111.513321 113.077667,108.755051 
	C112.955605,108.323868 112.571457,106.966888 112.302322,105.269821 
z"/>
<path fill="#54505A" opacity="1.000000" stroke="none" 
	d="
M38.989796,149.041199 
	C38.326485,149.028076 37.663216,149.006302 36.999855,149.003113 
	C26.639452,148.953308 26.457771,148.704147 29.577400,138.352570 
	C31.066126,138.352570 32.652264,138.352570 34.354347,138.352570 
	C34.944347,136.935486 35.543686,135.495972 36.299393,133.680893 
	C37.791611,136.344421 39.043091,138.578262 40.585136,141.248657 
	C40.247066,144.137222 39.618431,146.589218 38.989796,149.041199 
z"/>
<path fill="#A4D1A2" opacity="1.000000" stroke="none" 
	d="
M81.150421,153.087509 
	C82.928314,157.547714 81.205376,160.720215 77.391960,161.401337 
	C75.130981,161.805191 71.656006,160.268097 70.062386,158.439728 
	C67.531281,155.535736 69.466507,152.391373 72.200996,150.443359 
	C75.800339,147.879227 78.700844,149.491486 81.150421,153.087509 
z"/>
<path fill="#B2E2B9" opacity="1.000000" stroke="none" 
	d="
M58.038937,102.031982 
	C53.348248,101.455254 51.429516,98.826080 52.118313,94.743462 
	C52.685741,91.380203 55.113216,89.848412 58.617119,89.865059 
	C62.315868,89.882629 64.484360,92.015152 64.653580,95.223610 
	C64.856674,99.074417 62.846947,101.894363 58.038937,102.031982 
z"/>
<path fill="#A3D0A1" opacity="1.000000" stroke="none" 
	d="
M231.440216,137.578217 
	C228.541824,134.778534 227.886353,131.564560 230.187317,128.912628 
	C231.528915,127.366371 234.468002,126.272385 236.530548,126.487534 
	C240.357300,126.886719 242.237869,131.225098 240.868332,134.982666 
	C239.670883,138.268112 236.059311,139.385529 231.440216,137.578217 
z"/>
<path fill="#40B953" opacity="1.000000" stroke="none" 
	d="
M27.286125,29.435013 
	C27.903162,29.795177 28.804184,29.906010 28.851835,29.752295 
	C29.492125,27.686840 30.013428,25.584501 30.564255,23.491312 
	C31.214151,23.675018 31.864050,23.858725 32.513947,24.042431 
	C31.519762,28.366755 30.525576,32.691078 29.531389,37.015404 
	C28.890018,37.086456 28.248648,37.157505 27.607275,37.228558 
	C26.604614,34.309998 25.601954,31.391439 24.472607,28.104118 
	C23.275982,31.284786 22.174864,34.211597 21.073746,37.138409 
	C20.540892,37.152225 20.008038,37.166042 19.475182,37.179859 
	C18.316431,32.850796 17.157679,28.521736 15.998928,24.192673 
	C16.637369,23.976370 17.275810,23.760065 17.914251,23.543760 
	C18.756416,26.068342 19.598581,28.592924 20.520073,31.355305 
	C21.607704,28.634577 22.662876,25.995045 23.718046,23.355515 
	C24.201521,23.371559 24.684994,23.387604 25.168467,23.403648 
	C25.836777,25.289999 26.505087,27.176350 27.286125,29.435013 
z"/>
<path fill="#55525B" opacity="1.000000" stroke="none" 
	d="
M251.002670,73.230087 
	C256.446838,73.306183 254.762848,78.065109 255.663666,80.913284 
	C255.805679,81.362289 252.737259,83.376572 250.963028,83.740974 
	C248.801407,84.184921 246.438538,83.649055 244.138870,82.797043 
	C244.013489,79.848007 243.911987,77.638931 243.810486,75.429840 
	C244.039291,75.029495 244.268112,74.629150 244.951233,73.957367 
	C245.603973,73.145172 245.802399,72.604416 246.000824,72.063660 
	C246.864334,72.324089 247.727859,72.584511 248.860962,73.409836 
	C249.754593,73.726524 250.378632,73.478310 251.002670,73.230087 
z"/>
<path fill="#3AB74D" opacity="1.000000" stroke="none" 
	d="
M54.288063,24.092329 
	C56.214806,28.272415 57.850658,32.257221 59.486511,36.242027 
	C59.111160,36.372555 58.735809,36.503082 58.360458,36.633610 
	C56.564590,35.541729 54.804489,33.679138 52.961922,33.593632 
	C51.393055,33.520821 49.729233,35.493999 48.137997,36.541882 
	C47.026024,32.450981 50.481937,24.868879 54.288063,24.092329 
z"/>
<path fill="#41B953" opacity="1.000000" stroke="none" 
	d="
M87.979111,33.412544 
	C86.046028,34.426796 84.538689,35.444485 82.332802,36.933792 
	C82.546608,31.632160 84.956657,27.546005 87.050507,23.354450 
	C87.641739,23.246864 88.232971,23.139280 88.824203,23.031696 
	C90.646500,27.407368 92.468788,31.783041 94.291084,36.158714 
	C93.895149,36.371037 93.499222,36.583359 93.103287,36.795681 
	C91.537140,35.669113 89.970993,34.542545 87.979111,33.412544 
z"/>
<path fill="#3FB851" opacity="1.000000" stroke="none" 
	d="
M95.922226,33.590317 
	C95.922226,30.507774 95.922226,27.863642 95.922226,24.502733 
	C98.839554,26.897083 103.627144,20.380400 105.026077,27.241308 
	C105.960526,31.824190 101.891731,31.240051 99.108131,32.082474 
	C98.655922,33.606712 98.174751,35.228600 97.693573,36.850487 
	C97.378662,36.862331 97.063751,36.874172 96.748840,36.886017 
	C96.473305,35.933586 96.197762,34.981155 95.922226,33.590317 
z"/>
<path fill="#2FB342" opacity="1.000000" stroke="none" 
	d="
M39.088326,31.006233 
	C37.683514,32.927116 36.705009,34.843281 35.726505,36.759445 
	C35.308750,36.780392 34.890995,36.801338 34.473240,36.822289 
	C34.277020,32.654251 34.080799,28.486214 33.884579,24.318178 
	C34.325085,24.144184 34.765587,23.970190 35.206089,23.796196 
	C36.044548,25.392412 36.883003,26.988626 37.815662,28.764175 
	C39.082577,28.764175 40.672527,28.764175 42.287205,28.764175 
	C42.704208,26.963579 43.072746,25.372248 43.441284,23.780916 
	C43.798798,23.824192 44.156307,23.867468 44.513821,23.910744 
	C44.513821,28.151636 44.513821,32.392529 44.513821,37.182110 
	C41.429211,35.601353 44.794521,29.873251 39.088326,31.006233 
z"/>
<path fill="#59C06A" opacity="1.000000" stroke="none" 
	d="
M113.394928,25.029087 
	C114.839256,25.126387 115.923790,25.236227 116.422409,25.286726 
	C115.673660,27.261488 114.957947,29.149141 114.242226,31.036793 
	C114.148109,30.918787 114.053993,30.800781 113.959877,30.682775 
	C112.427872,32.661919 110.895866,34.641064 108.422829,37.835899 
	C108.173546,32.869915 107.973984,28.894323 107.766159,24.754116 
	C109.845894,24.867601 111.440506,24.954615 113.394928,25.029087 
z"/>
<path fill="#788280" opacity="1.000000" stroke="none" 
	d="
M23.004704,41.975338 
	C24.224319,43.721401 25.443935,45.467464 26.713593,47.285168 
	C26.984343,47.136284 27.967318,46.595734 29.432257,45.790154 
	C28.370913,47.300610 27.691147,48.268024 26.977629,49.283470 
	C25.602505,48.884117 24.206972,48.478832 22.330500,47.734135 
	C21.160769,47.269360 20.471977,47.144001 19.783188,47.018646 
	C18.880674,47.346561 17.978161,47.674480 16.847782,48.085194 
	C16.847782,46.442970 16.847782,44.871429 16.847782,44.146797 
	C19.075096,43.688076 21.143246,43.262135 23.114193,42.414726 
	C23.016989,41.993263 23.004704,41.975338 23.004704,41.975338 
z"/>
<path fill="#41BA54" opacity="1.000000" stroke="none" 
	d="
M62.342979,28.263937 
	C61.063526,26.880356 59.800377,25.931293 57.825256,24.447290 
	C61.986221,24.447290 65.438339,24.447290 68.890457,24.447290 
	C68.948486,24.745773 69.006516,25.044258 69.064545,25.342741 
	C67.822655,25.767502 66.580765,26.192263 65.278603,26.637638 
	C65.088776,30.022146 64.900879,33.372341 64.712975,36.722534 
	C64.086884,36.747753 63.460796,36.772972 62.834709,36.798191 
	C62.676235,34.098278 62.517761,31.398367 62.342979,28.263937 
z"/>
<path fill="#41B953" opacity="1.000000" stroke="none" 
	d="
M75.524139,28.550449 
	C78.562126,29.336460 81.581116,30.158266 80.528503,33.688549 
	C79.521126,37.067123 76.665649,37.506157 72.448792,36.118561 
	C73.905220,35.475643 74.441383,35.296307 74.918579,35.016434 
	C75.929207,34.423721 76.909065,33.778557 77.901550,33.154907 
	C76.944778,32.429115 76.089325,31.447645 75.013832,31.021463 
	C70.174217,29.103699 69.691940,27.837934 72.621353,24.551693 
	C73.452339,25.808092 74.310181,27.105106 75.524139,28.550449 
z"/>
<path fill="#5A565F" opacity="1.000000" stroke="none" 
	d="
M39.165390,149.378174 
	C39.618431,146.589218 40.247066,144.137222 40.930252,141.312820 
	C42.168697,140.785233 43.352589,140.630066 44.536480,140.474899 
	C44.821602,140.801270 45.106720,141.127640 45.391838,141.454010 
	C42.497746,143.680344 46.099094,149.811996 39.165390,149.378174 
z"/>
<path fill="#959994" opacity="1.000000" stroke="none" 
	d="
M140.572159,59.948273 
	C137.774826,67.456963 134.628647,74.976990 131.221741,82.747459 
	C130.731201,82.984543 130.501389,82.971191 129.922729,82.979599 
	C133.123718,75.320778 136.673508,67.640198 140.572159,59.948273 
z"/>
<path fill="#2E3131" opacity="1.000000" stroke="none" 
	d="
M41.758850,42.240700 
	C41.733940,44.516342 42.721859,47.199093 38.840469,46.408848 
	C38.560642,46.351875 37.807064,48.621784 36.279682,49.822983 
	C36.136509,47.167351 35.993340,44.511715 35.800907,40.942318 
	C38.221340,41.341274 39.978439,41.630894 41.758850,42.240700 
z"/>
<path fill="#5B5861" opacity="1.000000" stroke="none" 
	d="
M240.269745,160.797668 
	C240.128113,159.288773 240.231659,158.048111 240.335190,156.807465 
	C242.547958,157.059357 244.760727,157.311264 246.973495,157.563156 
	C246.537155,158.858551 246.357193,160.329941 245.613037,161.414047 
	C243.866409,163.958603 242.103394,162.913254 240.269745,160.797668 
z"/>
<path fill="#58545D" opacity="1.000000" stroke="none" 
	d="
M243.460388,75.550491 
	C243.911987,77.638931 244.013489,79.848007 244.057236,82.289185 
	C243.407623,83.395691 242.815781,84.270103 241.532486,86.166077 
	C240.327774,82.153297 239.432510,79.171310 238.381699,75.671143 
	C240.389755,75.671143 241.750015,75.671143 243.460388,75.550491 
z"/>
<path fill="#191A1A" opacity="1.000000" stroke="none" 
	d="
M46.324169,49.508301 
	C45.564548,46.941975 45.140114,44.185204 44.715683,41.428432 
	C45.167175,41.334465 45.618671,41.240498 46.070164,41.146526 
	C46.545818,42.134563 47.021469,43.122597 47.559540,44.240288 
	C48.446804,43.610229 49.210365,43.068016 49.637886,42.764427 
	C50.141331,44.522728 50.735001,46.596142 51.328667,48.669556 
	C51.120449,48.788383 50.912228,48.907207 50.704010,49.026035 
	C49.890827,48.065056 49.077644,47.104076 47.835445,45.636108 
	C47.311806,47.275375 46.985584,48.296616 46.324169,49.508301 
z"/>
<path fill="#191A1A" opacity="1.000000" stroke="none" 
	d="
M58.885666,44.855377 
	C58.141056,45.779186 56.983913,46.670238 54.740356,48.397881 
	C57.672783,48.660549 59.165081,48.794220 60.657375,48.927887 
	C60.663124,49.159668 60.668873,49.391445 60.674618,49.623226 
	C58.774456,49.623226 56.874294,49.623226 54.555626,49.623226 
	C54.555626,47.263355 54.555626,44.729698 54.555626,42.256889 
	C55.785549,43.062416 57.129341,43.942516 58.885666,44.855377 
z"/>
<path fill="#BCCAC9" opacity="1.000000" stroke="none" 
	d="
M127.046120,173.076019 
	C135.998734,173.076019 144.951355,173.076019 153.903961,173.076019 
	C153.907471,173.372269 153.910980,173.668518 153.914474,173.964767 
	C145.268600,173.964767 136.622726,173.964767 127.501053,173.732712 
	C127.025246,173.500656 127.046120,173.076019 127.046120,173.076019 
z"/>
<path fill="#CFDEDC" opacity="1.000000" stroke="none" 
	d="
M260.630493,173.020447 
	C262.363861,173.080658 263.651215,173.140823 264.938538,173.200989 
	C264.934174,173.378342 264.929810,173.555679 264.925446,173.733032 
	C256.948456,173.733032 248.971466,173.733032 240.994476,173.733032 
	C240.990417,173.495483 240.986374,173.257950 240.982315,173.020401 
	C247.383011,173.020401 253.783722,173.020401 260.630493,173.020447 
z"/>
<path fill="#CFDEDC" opacity="1.000000" stroke="none" 
	d="
M126.573761,173.046814 
	C127.046120,173.076019 127.025246,173.500656 127.035736,173.712311 
	C119.102127,173.923981 111.158012,173.923981 103.213905,173.923981 
	C103.210213,173.621857 103.206528,173.319717 103.202835,173.017593 
	C110.835693,173.017593 118.468552,173.017593 126.573761,173.046814 
z"/>
<path fill="#41B953" opacity="1.000000" stroke="none" 
	d="
M76.094894,23.625263 
	C75.828835,24.031816 75.390747,24.290318 74.952667,24.548817 
	C74.856285,24.292158 74.759903,24.035500 74.663513,23.778841 
	C75.083298,23.678297 75.503082,23.577753 76.094894,23.625263 
z"/>
<path fill="#191A1A" opacity="1.000000" stroke="none" 
	d="
M19.847954,47.376595 
	C20.471977,47.144001 21.160769,47.269360 21.994017,47.751999 
	C21.794888,48.690041 21.451303,49.270802 21.107718,49.851559 
	C20.709383,49.145885 20.311050,48.440216 19.847954,47.376595 
z"/>
<path fill="#959994" opacity="1.000000" stroke="none" 
	d="
M143.579132,54.961887 
	C143.535400,55.946121 143.134079,56.943550 142.401428,58.001869 
	C142.453903,57.033535 142.837708,56.004307 143.579132,54.961887 
z"/>
<path fill="#959994" opacity="1.000000" stroke="none" 
	d="
M145.688934,52.025139 
	C145.563065,52.990082 145.086166,53.944229 144.276154,54.919514 
	C144.408005,53.965210 144.872955,52.989777 145.688934,52.025139 
z"/>
<path fill="#3B3F3F" opacity="1.000000" stroke="none" 
	d="
M28.015915,63.098625 
	C28.592739,62.476753 29.658636,61.926399 30.724533,61.376041 
	C30.869888,61.777374 31.015244,62.178707 31.160599,62.580040 
	C30.275396,62.776741 29.390194,62.973442 28.015915,63.098625 
z"/>
<path fill="#58545D" opacity="1.000000" stroke="none" 
	d="
M250.663956,73.213562 
	C250.378632,73.478310 249.754593,73.726524 249.063873,73.724655 
	C249.439865,73.382065 249.882553,73.289551 250.663956,73.213562 
z"/>
<path fill="#959994" opacity="1.000000" stroke="none" 
	d="
M141.738251,58.093224 
	C141.911545,58.666203 141.749359,59.272690 141.257629,59.902855 
	C141.086304,59.326599 141.244522,58.726665 141.738251,58.093224 
z"/>
<path fill="#58545D" opacity="1.000000" stroke="none" 
	d="
M245.690369,72.120628 
	C245.802399,72.604416 245.603973,73.145172 245.145020,73.827126 
	C245.049637,73.371422 245.214767,72.774513 245.690369,72.120628 
z"/>
<path fill="#959994" opacity="1.000000" stroke="none" 
	d="
M146.528809,50.948574 
	C146.744034,51.248123 146.687439,51.611145 146.333755,52.006485 
	C146.110107,51.696556 146.183548,51.354301 146.528809,50.948574 
z"/>
<path fill="#788280" opacity="1.000000" stroke="none" 
	d="
M23.024015,41.992397 
	C23.031042,41.991531 22.921356,41.811630 22.921356,41.811630 
	C22.921356,41.811630 22.895142,42.045845 22.949923,42.010590 
	C23.004704,41.975338 23.016989,41.993263 23.024015,41.992397 
z"/>
<path fill="#DFE0E1" opacity="1.000000" stroke="none" 
	d="
M203.949661,58.157543 
	C207.727158,59.777466 211.504639,61.397388 215.915344,63.382271 
	C217.032761,65.373123 217.904007,66.991615 217.935272,68.626160 
	C218.083069,76.353203 218.057922,84.085373 217.957245,91.813927 
	C217.934967,93.523941 217.356323,95.226707 216.864227,96.639580 
	C214.116486,94.886703 211.538376,93.427063 208.856079,91.751114 
	C208.554001,91.265434 208.294250,91.085167 207.989868,90.994804 
	C208.007080,90.995628 207.998886,91.029091 207.970703,90.683350 
	C206.952347,89.564461 205.962158,88.791306 204.988495,88.011879 
	C205.005020,88.005615 204.982925,88.034561 204.962341,87.680283 
	C203.143188,84.782982 201.344604,82.239967 199.218796,79.234276 
	C197.316559,81.378242 196.147919,82.695396 194.727966,84.115723 
	C193.996765,84.467133 193.516861,84.715378 193.036957,84.963623 
	C182.986786,80.099663 174.404175,73.490616 168.151703,64.093094 
	C167.173126,62.622253 166.094543,61.217937 165.477448,59.410980 
	C176.839249,59.037090 187.786102,59.073273 198.732101,58.993931 
	C200.473221,58.981312 202.210571,58.449383 203.949661,58.157543 
M195.738098,72.447662 
	C197.505417,70.137146 196.469955,68.328423 194.439713,67.108307 
	C193.517334,66.553978 191.551880,66.291306 191.023056,66.834427 
	C190.003098,67.881989 188.889648,69.796104 189.197952,70.995407 
	C190.039215,74.267891 192.440170,74.749046 195.738098,72.447662 
z"/>
<path fill="#FEFDFD" opacity="1.000000" stroke="none" 
	d="
M165.022720,168.708725 
	C157.378464,169.101212 154.257095,166.267181 154.247910,158.746765 
	C154.224792,139.828003 154.254272,120.909164 154.377411,101.540024 
	C154.840637,101.084969 155.189133,101.080246 156.104218,101.029938 
	C157.078415,101.036331 157.486008,101.088318 157.932617,101.596237 
	C157.971603,110.661453 157.971603,119.270721 157.971603,127.879982 
	C158.354691,127.877686 158.737778,127.875381 159.120865,127.873077 
	C159.120865,118.970680 159.120865,110.068275 159.526367,101.119965 
	C161.291428,101.154083 162.651016,101.234123 164.010590,101.314163 
	C170.105865,103.110535 176.201157,104.906906 182.771210,107.148911 
	C184.162033,108.698586 185.078064,109.802628 185.788254,111.097382 
	C185.434692,112.490829 185.286942,113.693550 184.746002,114.921371 
	C181.245285,117.388680 178.137772,119.830887 174.799164,122.291626 
	C174.282745,122.465508 174.083359,122.695404 173.753326,123.087524 
	C173.266571,123.353088 173.075348,123.593742 172.635376,123.926361 
	C168.205322,124.595917 171.504425,125.887596 171.881836,127.230324 
	C171.492310,128.208145 170.866211,129.167679 171.113022,129.526062 
	C171.949387,130.740509 173.094711,131.742203 174.030304,133.153381 
	C173.589600,134.307938 173.240555,135.134293 172.437408,135.974609 
	C167.674225,135.984055 163.365143,135.979538 158.716644,136.234879 
	C158.377213,142.882889 158.377213,149.271057 158.377213,155.936676 
	C160.820526,155.936676 162.848343,155.677399 164.769379,156.018890 
	C166.299515,156.290863 167.699326,157.296066 169.095306,158.345444 
	C167.883194,161.844513 166.732773,164.973907 165.463074,168.176529 
	C165.201477,168.378036 165.094452,168.531021 165.022720,168.708725 
z"/>
<path fill="#CDE3CB" opacity="1.000000" stroke="none" 
	d="
M185.994080,110.906670 
	C185.078064,109.802628 184.162033,108.698586 183.112427,107.308388 
	C186.319138,99.868164 189.659424,92.714088 193.018341,85.261818 
	C193.516861,84.715378 193.996765,84.467133 194.957397,84.380470 
	C198.619736,85.706215 201.801331,86.870392 204.982925,88.034561 
	C204.982925,88.034561 205.005020,88.005615 205.012573,88.354744 
	C206.013046,89.478943 207.005966,90.254013 207.998886,91.029091 
	C207.998886,91.029091 208.007080,90.995628 208.098312,91.209534 
	C208.382004,91.696098 208.638901,91.877434 208.960266,91.967430 
	C211.538376,93.427063 214.116486,94.886703 216.855133,96.991348 
	C216.682526,99.982231 216.349396,102.328125 215.690277,104.851097 
	C214.577621,107.010925 213.790924,108.993668 212.953842,111.327911 
	C211.075623,116.101212 207.452927,117.230080 203.008209,116.661972 
	C197.274582,114.503471 191.634338,112.705070 185.994080,110.906670 
z"/>
<path fill="#FEFEFE" opacity="1.000000" stroke="none" 
	d="
M155.066620,45.051888 
	C154.583649,42.011032 154.190216,38.860435 154.385452,35.746742 
	C154.684723,30.973318 157.703461,28.231071 162.479294,28.037355 
	C165.304810,27.922750 168.141876,28.095684 170.967697,27.984941 
	C174.348663,27.852446 177.411804,27.742676 177.220230,32.652084 
	C177.192368,33.365501 179.550812,34.734470 180.876755,34.832825 
	C184.850449,35.127579 188.859695,34.942905 193.294113,34.947845 
	C194.202209,38.684750 194.671265,42.419167 194.710693,46.576897 
	C182.520050,47.055023 170.759003,47.109833 158.997971,47.164642 
	C157.805267,46.429317 156.612549,45.693996 155.066620,45.051888 
z"/>
<path fill="#FEFFFE" opacity="1.000000" stroke="none" 
	d="
M203.696426,57.933689 
	C202.210571,58.449383 200.473221,58.981312 198.732101,58.993931 
	C187.786102,59.073273 176.839249,59.037090 165.418915,59.063354 
	C164.654419,58.596203 164.363663,58.104790 164.437103,57.300449 
	C165.794373,55.658222 167.919067,53.776466 167.586151,53.094543 
	C166.084885,50.019543 163.904190,51.631451 161.974045,53.022156 
	C161.056091,51.557041 160.138153,50.091927 159.578812,48.311489 
	C171.899155,48.016979 183.860886,48.037788 195.822617,48.058601 
	C198.362808,51.275677 200.903000,54.492756 203.696426,57.933689 
z"/>
<path fill="#F6F6F6" opacity="1.000000" stroke="none" 
	d="
M145.113708,80.713593 
	C143.904236,82.223320 142.823807,83.390404 141.729019,84.572975 
	C136.646683,82.233223 135.610260,79.002243 138.069611,72.997673 
	C140.538528,66.969765 144.085388,65.226295 149.739929,67.400139 
	C149.285706,68.879440 148.827606,70.371315 148.649231,72.045670 
	C147.700195,74.942406 146.471466,77.656670 145.113708,80.713593 
z"/>
<path fill="#C6CCCB" opacity="1.000000" stroke="none" 
	d="
M195.819824,47.836708 
	C183.860886,48.037788 171.899155,48.016979 159.468781,47.999222 
	C159.000153,48.002277 158.999146,47.582161 158.998566,47.373402 
	C170.759003,47.109833 182.520050,47.055023 194.768768,46.992096 
	C195.579666,47.073101 195.766525,47.283379 195.819824,47.836708 
z"/>
<path fill="#EEEFEF" opacity="1.000000" stroke="none" 
	d="
M161.989731,53.367584 
	C163.904190,51.631451 166.084885,50.019543 167.586151,53.094543 
	C167.919067,53.776466 165.794373,55.658222 164.422333,57.000950 
	C163.364075,55.913925 162.684738,54.813473 161.989731,53.367584 
z"/>
<path fill="#A9ABAB" opacity="1.000000" stroke="none" 
	d="
M157.893616,101.140297 
	C157.486008,101.088318 157.078415,101.036331 156.363220,100.965332 
	C158.572144,100.828262 161.088623,100.710213 163.807861,100.953163 
	C162.651016,101.234123 161.291428,101.154083 159.219650,101.099808 
	C158.302841,101.130478 158.098221,101.135391 157.893616,101.140297 
z"/>
<path fill="#FDFDFD" opacity="1.000000" stroke="none" 
	d="
M220.847107,63.208824 
	C221.222809,95.183159 221.280380,127.136681 221.246201,159.090103 
	C221.238525,166.276031 218.424850,168.901642 211.192245,168.922577 
	C203.370270,168.945221 195.548172,168.918686 187.319092,168.408356 
	C187.327911,163.976059 187.743774,160.048996 188.613235,156.080658 
	C196.284531,156.039368 203.502228,156.039368 210.719940,156.039368 
	C208.243866,155.008087 205.776230,155.117569 203.321640,154.985229 
	C198.254120,154.712051 193.193542,154.309967 188.249954,153.584595 
	C188.610306,152.265366 188.853394,151.323090 189.090912,150.379410 
	C190.793152,143.615707 192.494247,136.851700 194.604858,130.060303 
	C196.679581,130.022659 198.345123,130.012482 200.261322,130.000824 
	C200.679092,129.998444 200.846191,129.997528 201.479248,129.994751 
	C207.299988,129.659882 212.654755,129.326889 218.005035,128.997223 
	C218.000549,129.000565 217.993973,129.009644 218.289520,128.713776 
	C218.707336,122.906960 218.829590,117.396027 218.969940,111.548721 
	C218.660309,109.485275 218.332581,107.758202 218.183014,105.650475 
	C218.563110,103.472588 218.926239,101.676666 218.940979,99.877899 
	C219.040527,87.720413 219.066376,75.562325 219.116058,63.404427 
	C219.575974,63.332275 220.035889,63.260128 220.847107,63.208824 
M217.424469,135.396393 
	C209.661179,135.396393 201.897888,135.396393 194.134598,135.396393 
	C197.234085,136.014877 200.340240,135.894897 203.433533,136.043289 
	C207.961197,136.260452 212.479614,136.669998 217.000229,137.934357 
	C217.000229,143.645966 217.000229,149.357559 217.000229,155.069168 
	C217.760590,155.044067 218.520966,155.018967 219.281326,154.993866 
	C218.863342,148.655853 218.445343,142.317841 217.424469,135.396393 
z"/>
<path fill="#EDF7EE" opacity="1.000000" stroke="none" 
	d="
M226.345947,24.314426 
	C233.378159,28.936853 235.850342,34.943733 233.687057,41.493408 
	C231.781769,47.261967 224.451447,52.176056 218.092834,51.783413 
	C217.284470,51.733494 216.588562,50.673668 215.739410,50.336445 
	C211.417847,48.620251 208.117889,43.434872 202.083115,47.470612 
	C201.983078,46.992897 201.883057,46.515179 201.783020,46.037460 
	C202.303848,44.993626 202.865982,43.968029 203.336700,42.902065 
	C204.246964,40.840683 205.597244,38.826241 205.902969,36.670097 
	C207.445694,25.789356 215.612885,20.593458 226.345947,24.314426 
M229.060257,44.492424 
	C232.582031,39.298717 232.906708,34.640491 230.018616,30.742529 
	C226.514297,26.012867 221.946213,24.358454 216.743195,25.934605 
	C211.303787,27.582363 208.952744,31.224545 208.619949,38.037140 
	C208.538589,39.703003 207.793762,41.336456 207.409485,42.776688 
	C209.084656,43.717300 210.864151,44.489918 212.386276,45.611736 
	C217.968246,49.725719 222.801071,49.613964 229.060257,44.492424 
z"/>
<path fill="#D2D6D4" opacity="1.000000" stroke="none" 
	d="
M218.735321,63.323471 
	C219.066376,75.562325 219.040527,87.720413 218.940979,99.877899 
	C218.926239,101.676666 218.563110,103.472588 217.917328,105.501930 
	C216.987747,105.380699 216.501999,105.027359 216.016251,104.674011 
	C216.349396,102.328125 216.682526,99.982231 217.024780,97.284576 
	C217.356323,95.226707 217.934967,93.523941 217.957245,91.813927 
	C218.057922,84.085373 218.083069,76.353203 217.935272,68.626160 
	C217.904007,66.991615 217.032761,65.373123 216.292236,63.467636 
	C216.808823,63.206192 217.581696,63.224350 218.735321,63.323471 
z"/>
<path fill="#F9BB9B" opacity="1.000000" stroke="none" 
	d="
M188.159637,156.121948 
	C187.743774,160.048996 187.327911,163.976059 186.843140,168.322052 
	C180.160965,168.709305 173.547699,168.677628 166.342682,168.505981 
	C165.750931,168.366013 165.582352,168.103302 165.582352,168.103302 
	C166.732773,164.973907 167.883194,161.844513 169.303162,158.200012 
	C169.782333,156.821167 169.991943,155.957397 170.140869,154.750092 
	C170.072632,153.942123 170.065109,153.477707 170.332993,152.875153 
	C171.082062,151.171402 171.555725,149.605804 172.299744,147.806152 
	C173.329895,144.683792 174.089661,141.795471 174.876526,138.584503 
	C174.232925,137.494766 173.562225,136.727707 172.891525,135.960648 
	C173.240555,135.134293 173.589600,134.307938 174.356277,133.283295 
	C177.478394,136.529221 180.181244,136.802979 183.334991,133.470947 
	C185.134552,131.569672 187.327942,129.996017 189.502441,128.506104 
	C192.257355,126.618469 195.173264,124.965790 198.035538,123.568909 
	C197.403397,125.325394 196.755493,126.724770 195.815002,128.179077 
	C195.080185,128.851929 194.637939,129.469849 194.195709,130.087784 
	C192.494247,136.851700 190.793152,143.615707 189.090912,150.379410 
	C188.853394,151.323090 188.610306,152.265366 188.222473,153.944458 
	C188.103317,155.161072 188.131470,155.641510 188.159637,156.121948 
z"/>
<path fill="#FDFDFD" opacity="1.000000" stroke="none" 
	d="
M165.463074,168.176529 
	C165.582352,168.103302 165.750931,168.366013 165.876556,168.459213 
	C165.850388,168.650299 165.698624,168.748169 165.284790,168.777390 
	C165.094452,168.531021 165.201477,168.378036 165.463074,168.176529 
z"/>
<path fill="#F4F5F4" opacity="1.000000" stroke="none" 
	d="
M195.511215,72.745575 
	C192.440170,74.749046 190.039215,74.267891 189.197952,70.995407 
	C188.889648,69.796104 190.003098,67.881989 191.023056,66.834427 
	C191.551880,66.291306 193.517334,66.553978 194.439713,67.108307 
	C196.469955,68.328423 197.505417,70.137146 195.511215,72.745575 
z"/>
<path fill="#F5F5F5" opacity="1.000000" stroke="none" 
	d="
M204.962341,87.680283 
	C201.801331,86.870392 198.619736,85.706215 195.208710,84.277298 
	C196.147919,82.695396 197.316559,81.378242 199.218796,79.234276 
	C201.344604,82.239967 203.143188,84.782982 204.962341,87.680283 
z"/>
<path fill="#F5F5F5" opacity="1.000000" stroke="none" 
	d="
M207.970703,90.683350 
	C207.005966,90.254013 206.013046,89.478943 204.996033,88.361008 
	C205.962158,88.791306 206.952347,89.564461 207.970703,90.683350 
z"/>
<path fill="#F5F5F5" opacity="1.000000" stroke="none" 
	d="
M208.856079,91.751114 
	C208.638901,91.877434 208.382004,91.696098 208.081100,91.208710 
	C208.294250,91.085167 208.554001,91.265434 208.856079,91.751114 
z"/>
<path fill="#080707" opacity="1.000000" stroke="none" 
	d="
M198.019760,123.211792 
	C195.173264,124.965790 192.257355,126.618469 189.502441,128.506104 
	C187.327942,129.996017 185.134552,131.569672 183.334991,133.470947 
	C180.181244,136.802979 177.478394,136.529221 174.447937,132.955109 
	C173.094711,131.742203 171.949387,130.740509 171.113022,129.526062 
	C170.866211,129.167679 171.492310,128.208145 172.136353,127.195053 
	C172.710251,126.794128 172.866135,126.722244 173.373169,126.744507 
	C175.525955,128.155701 177.327606,129.472748 178.449921,130.293182 
	C181.746902,128.204437 184.521927,126.446358 187.562531,124.520027 
	C186.669998,122.830505 185.762772,121.113159 184.806198,119.302376 
	C187.188995,118.954575 189.124039,118.672127 191.059097,118.389687 
	C191.116928,117.748077 191.174774,117.106468 191.232605,116.464859 
	C189.201477,115.942001 187.170334,115.419136 185.139206,114.896278 
	C185.286942,113.693550 185.434692,112.490829 185.788254,111.097382 
	C191.634338,112.705070 197.274582,114.503471 202.787399,116.934143 
	C201.113220,119.448212 199.566483,121.330002 198.019760,123.211792 
z"/>
<path fill="#F3B696" opacity="1.000000" stroke="none" 
	d="
M184.746002,114.921371 
	C187.170334,115.419136 189.201477,115.942001 191.232605,116.464859 
	C191.174774,117.106468 191.116928,117.748077 191.059097,118.389687 
	C189.124039,118.672127 187.188995,118.954575 184.806198,119.302376 
	C185.762772,121.113159 186.669998,122.830505 187.562531,124.520027 
	C184.521927,126.446358 181.746902,128.204437 178.449921,130.293182 
	C177.327606,129.472748 175.525955,128.155701 173.375732,126.400620 
	C173.005814,125.274109 172.984451,124.585625 172.963104,123.897148 
	C173.075348,123.593742 173.266571,123.353088 173.883240,123.244293 
	C174.496582,122.966629 174.763428,122.619865 175.030273,122.273102 
	C178.137772,119.830887 181.245285,117.388680 184.746002,114.921371 
z"/>
<path fill="#FBFBFB" opacity="1.000000" stroke="none" 
	d="
M172.437408,135.974609 
	C173.562225,136.727707 174.232925,137.494766 174.447662,138.607758 
	C169.844238,139.267075 165.696762,139.580505 160.991226,139.936096 
	C160.991226,142.812119 160.991226,145.407501 160.709930,148.267303 
	C159.335968,151.624573 160.204239,153.214462 163.708115,153.019012 
	C165.818130,152.901276 167.940659,153.007629 170.057556,153.013275 
	C170.065109,153.477707 170.072632,153.942123 169.658234,154.747406 
	C165.980347,155.088272 162.724411,155.088272 159.056076,155.088272 
	C159.056076,148.184128 159.056076,142.079590 159.056076,135.975037 
	C163.365143,135.979538 167.674225,135.984055 172.437408,135.974609 
z"/>
<path fill="#C4C7C8" opacity="1.000000" stroke="none" 
	d="
M158.716644,136.234879 
	C159.056076,142.079590 159.056076,148.184128 159.056076,155.088272 
	C162.724411,155.088272 165.980347,155.088272 169.718918,155.090958 
	C169.991943,155.957397 169.782333,156.821167 169.364853,157.830353 
	C167.699326,157.296066 166.299515,156.290863 164.769379,156.018890 
	C162.848343,155.677399 160.820526,155.936676 158.377213,155.936676 
	C158.377213,149.271057 158.377213,142.882889 158.716644,136.234879 
z"/>
<path fill="#D5D7D7" opacity="1.000000" stroke="none" 
	d="
M157.932617,101.596237 
	C158.098221,101.135391 158.302841,101.130478 158.814148,101.145721 
	C159.120865,110.068275 159.120865,118.970680 159.120865,127.873077 
	C158.737778,127.875381 158.354691,127.877686 157.971603,127.879982 
	C157.971603,119.270721 157.971603,110.661453 157.932617,101.596237 
z"/>
<path fill="#E2B095" opacity="1.000000" stroke="none" 
	d="
M172.635376,123.926361 
	C172.984451,124.585625 173.005814,125.274109 173.024597,126.306473 
	C172.866135,126.722244 172.710251,126.794128 172.299835,126.901291 
	C171.504425,125.887596 168.205322,124.595917 172.635376,123.926361 
z"/>
<path fill="#E2B095" opacity="1.000000" stroke="none" 
	d="
M174.799164,122.291626 
	C174.763428,122.619865 174.496582,122.966629 174.099808,123.156616 
	C174.083359,122.695404 174.282745,122.465508 174.799164,122.291626 
z"/>
<path fill="#FEFEFE" opacity="1.000000" stroke="none" 
	d="
M198.035538,123.568909 
	C199.566483,121.330002 201.113220,119.448212 202.880768,117.294250 
	C207.452927,117.230080 211.075623,116.101212 213.276306,111.426414 
	C215.071823,111.781097 216.494476,112.388779 217.944702,113.462242 
	C217.979507,118.955223 217.986755,123.982437 217.993988,129.009644 
	C217.993973,129.009644 218.000549,129.000565 217.536591,129.002167 
	C211.719528,129.334717 206.366394,129.665665 201.013275,129.996613 
	C200.846191,129.997528 200.679092,129.998444 200.061188,129.739197 
	C198.442780,129.027390 197.275192,128.575775 196.107590,128.124146 
	C196.755493,126.724770 197.403397,125.325394 198.035538,123.568909 
z"/>
<path fill="#D0525A" opacity="1.000000" stroke="none" 
	d="
M217.917145,112.996475 
	C216.494476,112.388779 215.071823,111.781097 213.326706,111.074921 
	C213.790924,108.993668 214.577621,107.010925 215.690277,104.851097 
	C216.501999,105.027359 216.987747,105.380699 217.739166,105.882584 
	C218.332581,107.758202 218.660309,109.485275 218.755707,111.691849 
	C218.321289,112.446388 218.119217,112.721436 217.917145,112.996475 
z"/>
<path fill="#F0F1F0" opacity="1.000000" stroke="none" 
	d="
M218.027359,135.979828 
	C218.445343,142.317841 218.863342,148.655853 219.281326,154.993866 
	C218.520966,155.018967 217.760590,155.044067 217.000229,155.069168 
	C217.000229,149.357559 217.000229,143.645966 217.224365,137.355743 
	C217.724274,136.571503 217.917221,136.305740 218.027359,135.979828 
z"/>
<path fill="#E3E5E5" opacity="1.000000" stroke="none" 
	d="
M217.725922,135.688110 
	C217.917221,136.305740 217.724274,136.571503 217.225250,136.887344 
	C212.479614,136.669998 207.961197,136.260452 203.433533,136.043289 
	C200.340240,135.894897 197.234085,136.014877 194.134598,135.396393 
	C201.897888,135.396393 209.661179,135.396393 217.725922,135.688110 
z"/>
<path fill="#DDDEDF" opacity="1.000000" stroke="none" 
	d="
M188.613235,156.080658 
	C188.131470,155.641510 188.103317,155.161072 188.102631,154.320770 
	C193.193542,154.309967 198.254120,154.712051 203.321640,154.985229 
	C205.776230,155.117569 208.243866,155.008087 210.719940,156.039368 
	C203.502228,156.039368 196.284531,156.039368 188.613235,156.080658 
z"/>
<path fill="#E9EAEA" opacity="1.000000" stroke="none" 
	d="
M217.944702,113.462250 
	C218.119217,112.721436 218.321289,112.446388 218.737610,112.028214 
	C218.829590,117.396027 218.707336,122.906960 218.289536,128.713776 
	C217.986755,123.982437 217.979507,118.955223 217.944702,113.462250 
z"/>
<path fill="#E9EAEA" opacity="1.000000" stroke="none" 
	d="
M201.479248,129.994751 
	C206.366394,129.665665 211.719528,129.334717 217.541092,128.998840 
	C212.654755,129.326889 207.299988,129.659882 201.479248,129.994751 
z"/>
<path fill="#E9EAEA" opacity="1.000000" stroke="none" 
	d="
M195.815002,128.179077 
	C197.275192,128.575775 198.442780,129.027390 199.810532,129.740662 
	C198.345123,130.012482 196.679581,130.022659 194.604858,130.060303 
	C194.637939,129.469849 195.080185,128.851929 195.815002,128.179077 
z"/>
<path fill="#3DB74F" opacity="1.000000" stroke="none" 
	d="
M228.813629,44.779572 
	C222.801071,49.613964 217.968246,49.725719 212.386276,45.611736 
	C210.864151,44.489918 209.084656,43.717300 207.409485,42.776688 
	C207.793762,41.336456 208.538589,39.703003 208.619949,38.037140 
	C208.952744,31.224545 211.303787,27.582363 216.743195,25.934605 
	C221.946213,24.358454 226.514297,26.012867 230.018616,30.742529 
	C232.906708,34.640491 232.582031,39.298717 228.813629,44.779572 
M215.519577,30.431576 
	C214.037949,35.629864 215.815475,41.151085 220.269012,43.682873 
	C221.635864,44.459908 223.711472,43.990200 225.462524,44.091396 
	C225.594528,43.525661 225.726532,42.959930 225.858536,42.394199 
	C224.783249,41.605621 223.757278,40.226612 222.623993,40.131927 
	C218.021973,39.747433 217.375778,37.593636 218.749954,33.610836 
	C219.318466,31.963099 220.942245,28.346418 215.519577,30.431576 
z"/>
<path fill="#DDDEDF" opacity="1.000000" stroke="none" 
	d="
M160.991226,148.002884 
	C160.991226,145.407501 160.991226,142.812119 160.991226,139.936096 
	C165.696762,139.580505 169.844238,139.267075 174.420563,138.930420 
	C174.089661,141.795471 173.329895,144.683792 172.101776,147.608917 
	C170.026428,146.901291 168.419418,146.156860 166.888397,145.447617 
	C164.354691,145.046356 165.031967,151.713028 160.991226,148.002884 
z"/>
<path fill="#F4F5F4" opacity="1.000000" stroke="none" 
	d="
M160.709930,148.267303 
	C165.031967,151.713028 164.354691,145.046356 166.888397,145.447617 
	C168.419418,146.156860 170.026428,146.901291 171.831406,147.842957 
	C171.555725,149.605804 171.082062,151.171402 170.332977,152.875153 
	C167.940659,153.007629 165.818130,152.901276 163.708115,153.019012 
	C160.204239,153.214462 159.335968,151.624573 160.709930,148.267303 
z"/>
<path fill="#F1F9F2" opacity="1.000000" stroke="none" 
	d="
M215.836731,30.172791 
	C220.942245,28.346418 219.318466,31.963099 218.749954,33.610836 
	C217.375778,37.593636 218.021973,39.747433 222.623993,40.131927 
	C223.757278,40.226612 224.783249,41.605621 225.858536,42.394199 
	C225.726532,42.959930 225.594528,43.525661 225.462524,44.091396 
	C223.711472,43.990200 221.635864,44.459908 220.269012,43.682873 
	C215.815475,41.151085 214.037949,35.629864 215.836731,30.172791 
z"/>
</svg>